<?xml version="1.0" encoding="iso-8859-1"?>
<!-- Generator: Adobe Illustrator 19.0.0, SVG Export Plug-In . SVG Version: 6.00 Build 0)  -->
<svg version="1.1" id="Capa_1" xmlns="http://www.w3.org/2000/svg" xmlns:xlink="http://www.w3.org/1999/xlink" x="0px" y="0px"
	 viewBox="0 0 469.333 469.333" style="enable-background:new 0 0 469.333 469.333;" xml:space="preserve">
<linearGradient id="SVGID_1_" gradientUnits="userSpaceOnUse" x1="-65.3356" y1="576.3021" x2="-9.5096" y2="576.3021" gradientTransform="matrix(10.6667 0 0 -10.6667 679.8889 6328.5557)">
	<stop  offset="0" style="stop-color:#E93E3A"/>
	<stop  offset="0.358" style="stop-color:#ED683C"/>
	<stop  offset="0.715" style="stop-color:#F3903F"/>
	<stop  offset="1" style="stop-color:#FDC70C"/>
</linearGradient>
<path style="fill:url(#SVGID_1_);" d="M160,266.667h85.333c5.891,0,10.667-4.776,10.667-10.667v-64
	c0-5.891-4.776-10.667-10.667-10.667h32c-5.891,0-10.667,4.776-10.667,10.667v64c0,5.891,4.776,10.667,10.667,10.667h85.333
	c5.891,0,10.667-4.776,10.667-10.667v-64c0-5.891-4.776-10.667-10.667-10.667h-64c5.891,0,10.667-4.776,10.667-10.667v-64
	c0-5.891-4.776-10.667-10.667-10.667h-85.333c-5.891,0-10.667,4.776-10.667,10.667v64c0,5.891,4.776,10.667,10.667,10.667H160
	c-5.891,0-10.667,4.776-10.667,10.667v64C149.333,261.891,154.109,266.667,160,266.667z M288,245.333v-10.667h64v10.667H288z
	 M352,213.333h-21.333v-10.667H352V213.333z M309.333,202.667v10.667H288v-10.667H309.333z M224,160v-10.667h64V160H224z M288,128
	h-21.333v-10.667H288V128z M245.333,117.333V128H224v-10.667H245.333z M170.667,245.333v-10.667h64v10.667H170.667z
	 M234.667,202.667v10.667h-21.333v-10.667H234.667z M192,202.667v10.667h-21.333v-10.667H192z"/>
<linearGradient id="SVGID_2_" gradientUnits="userSpaceOnUse" x1="-65.3356" y1="580.3021" x2="-9.5096" y2="580.3021" gradientTransform="matrix(10.6667 0 0 -10.6667 679.8889 6328.5557)">
	<stop  offset="0" style="stop-color:#E93E3A"/>
	<stop  offset="0.358" style="stop-color:#ED683C"/>
	<stop  offset="0.715" style="stop-color:#F3903F"/>
	<stop  offset="1" style="stop-color:#FDC70C"/>
</linearGradient>
<path style="fill:url(#SVGID_2_);" d="M330.667,128h96v21.333h-96V128z"/>
<g>
	
		<linearGradient id="SVGID_3_" gradientUnits="userSpaceOnUse" x1="-65.3356" y1="576.3021" x2="-9.5096" y2="576.3021" gradientTransform="matrix(10.6667 0 0 -10.6667 679.8889 6328.5557)">
		<stop  offset="0" style="stop-color:#E93E3A"/>
		<stop  offset="0.358" style="stop-color:#ED683C"/>
		<stop  offset="0.715" style="stop-color:#F3903F"/>
		<stop  offset="1" style="stop-color:#FDC70C"/>
	</linearGradient>
	<path style="fill:url(#SVGID_3_);" d="M405.333,170.667h21.333V192h-21.333V170.667z"/>
	
		<linearGradient id="SVGID_4_" gradientUnits="userSpaceOnUse" x1="-65.3356" y1="576.3021" x2="-9.5096" y2="576.3021" gradientTransform="matrix(10.6667 0 0 -10.6667 679.8889 6328.5557)">
		<stop  offset="0" style="stop-color:#E93E3A"/>
		<stop  offset="0.358" style="stop-color:#ED683C"/>
		<stop  offset="0.715" style="stop-color:#F3903F"/>
		<stop  offset="1" style="stop-color:#FDC70C"/>
	</linearGradient>
	<path style="fill:url(#SVGID_4_);" d="M437.333,170.667h21.333V192h-21.333V170.667z"/>
</g>
<g>
	
		<linearGradient id="SVGID_5_" gradientUnits="userSpaceOnUse" x1="-65.3356" y1="580.3021" x2="-9.5096" y2="580.3021" gradientTransform="matrix(10.6667 0 0 -10.6667 679.8889 6328.5557)">
		<stop  offset="0" style="stop-color:#E93E3A"/>
		<stop  offset="0.358" style="stop-color:#ED683C"/>
		<stop  offset="0.715" style="stop-color:#F3903F"/>
		<stop  offset="1" style="stop-color:#FDC70C"/>
	</linearGradient>
	<path style="fill:url(#SVGID_5_);" d="M437.333,128h21.333v21.333h-21.333V128z"/>
	
		<linearGradient id="SVGID_6_" gradientUnits="userSpaceOnUse" x1="-65.3356" y1="572.3021" x2="-9.5096" y2="572.3021" gradientTransform="matrix(10.6667 0 0 -10.6667 679.8889 6328.5557)">
		<stop  offset="0" style="stop-color:#E93E3A"/>
		<stop  offset="0.358" style="stop-color:#ED683C"/>
		<stop  offset="0.715" style="stop-color:#F3903F"/>
		<stop  offset="1" style="stop-color:#FDC70C"/>
	</linearGradient>
	<path style="fill:url(#SVGID_6_);" d="M394.667,213.333h42.667v21.333h-42.667V213.333z"/>
	
		<linearGradient id="SVGID_7_" gradientUnits="userSpaceOnUse" x1="-65.3356" y1="572.3021" x2="-9.5096" y2="572.3021" gradientTransform="matrix(10.6667 0 0 -10.6667 679.8889 6328.5557)">
		<stop  offset="0" style="stop-color:#E93E3A"/>
		<stop  offset="0.358" style="stop-color:#ED683C"/>
		<stop  offset="0.715" style="stop-color:#F3903F"/>
		<stop  offset="1" style="stop-color:#FDC70C"/>
	</linearGradient>
	<path style="fill:url(#SVGID_7_);" d="M448,213.333h21.333v21.333H448V213.333z"/>
	
		<linearGradient id="SVGID_8_" gradientUnits="userSpaceOnUse" x1="-65.3356" y1="568.3021" x2="-9.5096" y2="568.3021" gradientTransform="matrix(10.6667 0 0 -10.6667 679.8889 6328.5557)">
		<stop  offset="0" style="stop-color:#E93E3A"/>
		<stop  offset="0.358" style="stop-color:#ED683C"/>
		<stop  offset="0.715" style="stop-color:#F3903F"/>
		<stop  offset="1" style="stop-color:#FDC70C"/>
	</linearGradient>
	<path style="fill:url(#SVGID_8_);" d="M384,277.333H138.667V170.667c0-5.891-4.776-10.667-10.667-10.667H64
		c-2.423-0.001-4.774,0.823-6.667,2.336L4,205.003c-2.529,2.025-4.001,5.09-4,8.331v117.333c0,5.891,4.776,10.667,10.667,10.667
		h10.667c0,17.673,14.327,32,32,32s32-14.327,32-32h160c0,17.673,14.327,32,32,32s32-14.327,32-32c0,17.673,14.327,32,32,32
		s32-14.327,32-32H384c5.891,0,10.667-4.776,10.667-10.667V288C394.667,282.109,389.891,277.333,384,277.333z M21.333,266.667h96
		v10.667h-96V266.667z M21.333,218.453l46.411-37.12h49.589v64h-96V218.453z M53.333,352c-5.891,0-10.667-4.776-10.667-10.667
		s4.776-10.667,10.667-10.667S64,335.442,64,341.333S59.224,352,53.333,352z M277.333,352c-5.891,0-10.667-4.776-10.667-10.667
		s4.776-10.667,10.667-10.667S288,335.442,288,341.333S283.224,352,277.333,352z M341.333,352c-5.891,0-10.667-4.776-10.667-10.667
		s4.776-10.667,10.667-10.667S352,335.442,352,341.333S347.224,352,341.333,352z M373.333,320h-8.32
		c-11.569-13.078-31.55-14.301-44.628-2.732c-0.965,0.854-1.878,1.766-2.732,2.732h-16.64c-11.569-13.078-31.55-14.301-44.628-2.732
		c-0.965,0.854-1.878,1.766-2.732,2.732H77.013c-11.569-13.078-31.55-14.301-44.628-2.732c-0.965,0.854-1.878,1.766-2.732,2.732
		h-8.32v-21.333h352V320z"/>
</g>
<g>
</g>
<g>
</g>
<g>
</g>
<g>
</g>
<g>
</g>
<g>
</g>
<g>
</g>
<g>
</g>
<g>
</g>
<g>
</g>
<g>
</g>
<g>
</g>
<g>
</g>
<g>
</g>
<g>
</g>
</svg>
