
<svg xmlns="http://www.w3.org/2000/svg" version="1.1" xmlns:xlink="http://www.w3.org/1999/xlink" preserveAspectRatio="none" x="0px" y="0px" width="678px" height="1100px" viewBox="0 0 678 1100">
<defs>
<g id="yellowCard_0_Layer1_0_FILL">
<path fill="#FFD62A" fill-opacity="0.7490196078431373" stroke="none" d="
M 338 195.4
L 338 17.6
Q 338 0 320 0
L 18.05 0
Q 0 0 0 17.6
L 0 195.4
Q 0 213 18.05 213
L 320 213
Q 338 213 338 195.4 Z"/>
</g>

<g id="yellowCard_0_Layer0_0_FILL">
<path fill="#FFFFFF" fill-opacity="0.34901960784313724" stroke="none" d="
M 77.15 123.15
L 62.2 123.15
Q 62.2 127 63.25 130.25 63.5 130.6 63.65 130.95 64.95 134.05 67.35 136.8 67.7 137.2 68.05 137.55
L 68.2 137.65
Q 68.4 137.9 68.55 138 69.85 139.2 71.3 140.2 74.75 142.55 79.1 143.3
L 79.2 143.3
Q 80.75 143.55 82.45 143.55 90.85 143.55 96.8 137.55 97.75 136.6 98.75 135.4 98.85 135.15 99.1 134.9
L 99.2 134.8
Q 100.15 133.35 100.9 131.8 102.8 127.95 102.8 123.15 102.8 120.55 102.2 118.15 102.1 117.8 101.95 117.55 100.9 113.7 98.35 110.6
L 87.7 123.15
Q 87.7 124.35 87.25 125.3 87.1 125.7 86.85 126.05 86.5 126.5 86.15 126.9 84.6 128.45 82.45 128.45 80.5 128.45 79.2 127.35
L 79.1 127.25
Q 78.95 127.1 78.75 126.9 78.35 126.5 78 126.05 77.75 125.7 77.65 125.3 77.15 124.35 77.15 123.15
M 76.35 91.65
L 76.2 91.65 65.55 104.35 85.65 121.25 85.8 121.25 96.45 108.65 76.35 91.65
M 128.55 98.75
L 112.05 98.75 112.05 143.55 128.55 143.55 128.55 98.75
M 159.35 88.9
L 142.7 88.9 142.7 143.55 159.35 143.55 159.35 88.9
M 112.05 69.5
L 112.05 95.85 128.55 95.85 128.55 69.5 112.05 69.5
M 90.7 72.85
Q 87.25 70.45 82.9 69.75 81.25 69.5 79.55 69.5 71.2 69.5 65.2 75.5
L 65.05 75.6
Q 64.1 76.55 63.25 77.65 59.2 82.9 59.2 89.85 59.2 90.1 59.3 90.45 59.3 91.05 59.3 91.8 59.3 92.25 59.45 92.75 59.7 94.2 60.05 95.6 60.15 96.2 60.5 96.95
L 60.5 97.05
Q 61.35 99.35 62.9 101.35 63.25 101.95 63.65 102.45
L 74.3 89.85
Q 74.3 88.3 75.15 87 75.5 86.5 75.85 86.15 76.7 85.3 77.75 84.95 78.6 84.6 79.55 84.6 81.5 84.6 82.9 85.8 83.05 85.9 83.3 86.15 83.65 86.5 84 87 84.85 88.3 84.85 89.85
L 99.8 89.85
Q 99.8 81.35 93.95 75.5
L 93.8 75.35
Q 92.4 73.95 90.7 72.85
M 259.35 119.7
L 259.35 93.35 242.7 93.35 242.7 119.7 259.35 119.7
M 214.1 123.55
Q 214.1 123.4 214.1 123.15
L 214.1 122.55 197.55 122.55 197.55 123.4
Q 197.45 124.5 196.85 125.3 196.6 125.55 196.5 125.8 195.4 126.9 193.85 126.9 192.3 126.9 191.2 125.8 190.35 124.95 190.15 123.65 190.15 123.55 190.15 123.3
L 190.15 122.55 173.5 122.55 173.5 123.3
Q 173.5 125.2 173.85 127 173.85 127.25 173.85 127.5 173.85 127.6 173.95 127.7 174.3 129.75 175.15 131.55 176.1 133.6 177.55 135.4 178.05 136.1 178.65 136.7 179 137.05 179.35 137.4 179.35 137.55 179.45 137.55 185.35 143.55 193.75 143.55 195.5 143.55 197.1 143.3 201.4 142.55 205 140.2 206.55 139.1 208 137.65 208.1 137.65 208.1 137.55 208.6 137.2 208.95 136.7 211.1 134.3 212.3 131.55 213.25 129.65 213.6 127.5 214.1 125.55 214.1 123.55
M 239.95 69.5
L 223.3 69.5 223.3 143.55 239.95 143.55 239.95 69.5
M 190 93.35
L 173.5 93.35 173.5 119.7 190 119.7 190 93.35
M 164.25 86.15
L 164.25 69.5 137.9 69.5 137.9 86.15 164.25 86.15
M 197.1 69.75
Q 195.5 69.5 193.75 69.5 185.35 69.5 179.45 75.5
L 179.35 75.5
Q 179 75.85 178.65 76.35 178.05 76.95 177.55 77.65 176.1 79.45 175.15 81.5 174.3 83.3 173.95 85.3 173.85 85.45 173.85 85.55 173.85 85.8 173.85 85.9 173.5 87.85 173.5 89.75
L 173.5 90.45 190.15 90.45 190.15 89.75
Q 190.15 89.5 190.15 89.25 190.35 88.05 191.2 87.25 192.3 86.15 193.85 86.15 195.4 86.15 196.5 87.25 196.6 87.45 196.85 87.7 197.45 88.55 197.55 89.65
L 197.55 90.45 214.1 90.45 214.1 89.75
Q 214.1 89.65 214.1 89.5 214.1 87.45 213.6 85.55 213.25 83.4 212.3 81.5 211.1 78.7 208.95 76.35 208.6 75.85 208.1 75.5 208.1 75.35 208 75.25 206.55 73.95 205 72.85 201.4 70.45 197.1 69.75
M 278.8 69.5
L 262.15 69.5 262.15 143.55 278.8 143.55 278.8 69.5 Z"/>
</g>

<g id="orangeCard_0_Layer1_0_FILL">
<path fill="#FF9900" fill-opacity="0.7490196078431373" stroke="none" d="
M 338 195.4
L 338 17.6
Q 338 0 320 0
L 18.05 0
Q 0 0 0 17.6
L 0 195.4
Q 0 213 18.05 213
L 320 213
Q 338 213 338 195.4 Z"/>
</g>

<g id="orangeCard_0_Layer0_0_FILL">
<path fill="#FFFFFF" fill-opacity="0.34901960784313724" stroke="none" d="
M 77.15 123.15
L 62.2 123.15
Q 62.2 127 63.25 130.25 63.5 130.6 63.65 130.95 64.95 134.05 67.35 136.8 67.7 137.2 68.05 137.55
L 68.2 137.65
Q 68.4 137.9 68.55 138 69.85 139.2 71.3 140.2 74.75 142.55 79.1 143.3
L 79.2 143.3
Q 80.75 143.55 82.45 143.55 90.85 143.55 96.8 137.55 97.75 136.6 98.75 135.4 98.85 135.15 99.1 134.9
L 99.2 134.8
Q 100.15 133.35 100.9 131.8 102.8 127.95 102.8 123.15 102.8 120.55 102.2 118.15 102.1 117.8 101.95 117.55 100.9 113.7 98.35 110.6
L 87.7 123.15
Q 87.7 124.35 87.25 125.3 87.1 125.7 86.85 126.05 86.5 126.5 86.15 126.9 84.6 128.45 82.45 128.45 80.5 128.45 79.2 127.35
L 79.1 127.25
Q 78.95 127.1 78.75 126.9 78.35 126.5 78 126.05 77.75 125.7 77.65 125.3 77.15 124.35 77.15 123.15
M 76.35 91.65
L 76.2 91.65 65.55 104.35 85.65 121.25 85.8 121.25 96.45 108.65 76.35 91.65
M 128.55 98.75
L 112.05 98.75 112.05 143.55 128.55 143.55 128.55 98.75
M 159.35 88.9
L 142.7 88.9 142.7 143.55 159.35 143.55 159.35 88.9
M 112.05 69.5
L 112.05 95.85 128.55 95.85 128.55 69.5 112.05 69.5
M 90.7 72.85
Q 87.25 70.45 82.9 69.75 81.25 69.5 79.55 69.5 71.2 69.5 65.2 75.5
L 65.05 75.6
Q 64.1 76.55 63.25 77.65 59.2 82.9 59.2 89.85 59.2 90.1 59.3 90.45 59.3 91.05 59.3 91.8 59.3 92.25 59.45 92.75 59.7 94.2 60.05 95.6 60.15 96.2 60.5 96.95
L 60.5 97.05
Q 61.35 99.35 62.9 101.35 63.25 101.95 63.65 102.45
L 74.3 89.85
Q 74.3 88.3 75.15 87 75.5 86.5 75.85 86.15 76.7 85.3 77.75 84.95 78.6 84.6 79.55 84.6 81.5 84.6 82.9 85.8 83.05 85.9 83.3 86.15 83.65 86.5 84 87 84.85 88.3 84.85 89.85
L 99.8 89.85
Q 99.8 81.35 93.95 75.5
L 93.8 75.35
Q 92.4 73.95 90.7 72.85
M 259.35 119.7
L 259.35 93.35 242.7 93.35 242.7 119.7 259.35 119.7
M 214.1 123.55
Q 214.1 123.4 214.1 123.15
L 214.1 122.55 197.55 122.55 197.55 123.4
Q 197.45 124.5 196.85 125.3 196.6 125.55 196.5 125.8 195.4 126.9 193.85 126.9 192.3 126.9 191.2 125.8 190.35 124.95 190.15 123.65 190.15 123.55 190.15 123.3
L 190.15 122.55 173.5 122.55 173.5 123.3
Q 173.5 125.2 173.85 127 173.85 127.25 173.85 127.5 173.85 127.6 173.95 127.7 174.3 129.75 175.15 131.55 176.1 133.6 177.55 135.4 178.05 136.1 178.65 136.7 179 137.05 179.35 137.4 179.35 137.55 179.45 137.55 185.35 143.55 193.75 143.55 195.5 143.55 197.1 143.3 201.4 142.55 205 140.2 206.55 139.1 208 137.65 208.1 137.65 208.1 137.55 208.6 137.2 208.95 136.7 211.1 134.3 212.3 131.55 213.25 129.65 213.6 127.5 214.1 125.55 214.1 123.55
M 239.95 69.5
L 223.3 69.5 223.3 143.55 239.95 143.55 239.95 69.5
M 190 93.35
L 173.5 93.35 173.5 119.7 190 119.7 190 93.35
M 164.25 86.15
L 164.25 69.5 137.9 69.5 137.9 86.15 164.25 86.15
M 197.1 69.75
Q 195.5 69.5 193.75 69.5 185.35 69.5 179.45 75.5
L 179.35 75.5
Q 179 75.85 178.65 76.35 178.05 76.95 177.55 77.65 176.1 79.45 175.15 81.5 174.3 83.3 173.95 85.3 173.85 85.45 173.85 85.55 173.85 85.8 173.85 85.9 173.5 87.85 173.5 89.75
L 173.5 90.45 190.15 90.45 190.15 89.75
Q 190.15 89.5 190.15 89.25 190.35 88.05 191.2 87.25 192.3 86.15 193.85 86.15 195.4 86.15 196.5 87.25 196.6 87.45 196.85 87.7 197.45 88.55 197.55 89.65
L 197.55 90.45 214.1 90.45 214.1 89.75
Q 214.1 89.65 214.1 89.5 214.1 87.45 213.6 85.55 213.25 83.4 212.3 81.5 211.1 78.7 208.95 76.35 208.6 75.85 208.1 75.5 208.1 75.35 208 75.25 206.55 73.95 205 72.85 201.4 70.45 197.1 69.75
M 278.8 69.5
L 262.15 69.5 262.15 143.55 278.8 143.55 278.8 69.5 Z"/>
</g>

<g id="redCard_0_Layer1_0_FILL">
<path fill="#FF5B1B" fill-opacity="0.7490196078431373" stroke="none" d="
M 338 195.4
L 338 17.6
Q 338 0 320 0
L 18.05 0
Q 0 0 0 17.6
L 0 195.4
Q 0 213 18.05 213
L 320 213
Q 338 213 338 195.4 Z"/>
</g>

<g id="redCard_0_Layer0_0_FILL">
<path fill="#FFFFFF" fill-opacity="0.34901960784313724" stroke="none" d="
M 77.15 123.15
L 62.2 123.15
Q 62.2 127 63.25 130.25 63.5 130.6 63.65 130.95 64.95 134.05 67.35 136.8 67.7 137.2 68.05 137.55
L 68.2 137.65
Q 68.4 137.9 68.55 138 69.85 139.2 71.3 140.2 74.75 142.55 79.1 143.3
L 79.2 143.3
Q 80.75 143.55 82.45 143.55 90.85 143.55 96.8 137.55 97.75 136.6 98.75 135.4 98.85 135.15 99.1 134.9
L 99.2 134.8
Q 100.15 133.35 100.9 131.8 102.8 127.95 102.8 123.15 102.8 120.55 102.2 118.15 102.1 117.8 101.95 117.55 100.9 113.7 98.35 110.6
L 87.7 123.15
Q 87.7 124.35 87.25 125.3 87.1 125.7 86.85 126.05 86.5 126.5 86.15 126.9 84.6 128.45 82.45 128.45 80.5 128.45 79.2 127.35
L 79.1 127.25
Q 78.95 127.1 78.75 126.9 78.35 126.5 78 126.05 77.75 125.7 77.65 125.3 77.15 124.35 77.15 123.15
M 76.35 91.65
L 76.2 91.65 65.55 104.35 85.65 121.25 85.8 121.25 96.45 108.65 76.35 91.65
M 128.55 98.75
L 112.05 98.75 112.05 143.55 128.55 143.55 128.55 98.75
M 159.35 88.9
L 142.7 88.9 142.7 143.55 159.35 143.55 159.35 88.9
M 112.05 69.5
L 112.05 95.85 128.55 95.85 128.55 69.5 112.05 69.5
M 90.7 72.85
Q 87.25 70.45 82.9 69.75 81.25 69.5 79.55 69.5 71.2 69.5 65.2 75.5
L 65.05 75.6
Q 64.1 76.55 63.25 77.65 59.2 82.9 59.2 89.85 59.2 90.1 59.3 90.45 59.3 91.05 59.3 91.8 59.3 92.25 59.45 92.75 59.7 94.2 60.05 95.6 60.15 96.2 60.5 96.95
L 60.5 97.05
Q 61.35 99.35 62.9 101.35 63.25 101.95 63.65 102.45
L 74.3 89.85
Q 74.3 88.3 75.15 87 75.5 86.5 75.85 86.15 76.7 85.3 77.75 84.95 78.6 84.6 79.55 84.6 81.5 84.6 82.9 85.8 83.05 85.9 83.3 86.15 83.65 86.5 84 87 84.85 88.3 84.85 89.85
L 99.8 89.85
Q 99.8 81.35 93.95 75.5
L 93.8 75.35
Q 92.4 73.95 90.7 72.85
M 259.35 119.7
L 259.35 93.35 242.7 93.35 242.7 119.7 259.35 119.7
M 214.1 123.55
Q 214.1 123.4 214.1 123.15
L 214.1 122.55 197.55 122.55 197.55 123.4
Q 197.45 124.5 196.85 125.3 196.6 125.55 196.5 125.8 195.4 126.9 193.85 126.9 192.3 126.9 191.2 125.8 190.35 124.95 190.15 123.65 190.15 123.55 190.15 123.3
L 190.15 122.55 173.5 122.55 173.5 123.3
Q 173.5 125.2 173.85 127 173.85 127.25 173.85 127.5 173.85 127.6 173.95 127.7 174.3 129.75 175.15 131.55 176.1 133.6 177.55 135.4 178.05 136.1 178.65 136.7 179 137.05 179.35 137.4 179.35 137.55 179.45 137.55 185.35 143.55 193.75 143.55 195.5 143.55 197.1 143.3 201.4 142.55 205 140.2 206.55 139.1 208 137.65 208.1 137.65 208.1 137.55 208.6 137.2 208.95 136.7 211.1 134.3 212.3 131.55 213.25 129.65 213.6 127.5 214.1 125.55 214.1 123.55
M 239.95 69.5
L 223.3 69.5 223.3 143.55 239.95 143.55 239.95 69.5
M 190 93.35
L 173.5 93.35 173.5 119.7 190 119.7 190 93.35
M 164.25 86.15
L 164.25 69.5 137.9 69.5 137.9 86.15 164.25 86.15
M 197.1 69.75
Q 195.5 69.5 193.75 69.5 185.35 69.5 179.45 75.5
L 179.35 75.5
Q 179 75.85 178.65 76.35 178.05 76.95 177.55 77.65 176.1 79.45 175.15 81.5 174.3 83.3 173.95 85.3 173.85 85.45 173.85 85.55 173.85 85.8 173.85 85.9 173.5 87.85 173.5 89.75
L 173.5 90.45 190.15 90.45 190.15 89.75
Q 190.15 89.5 190.15 89.25 190.35 88.05 191.2 87.25 192.3 86.15 193.85 86.15 195.4 86.15 196.5 87.25 196.6 87.45 196.85 87.7 197.45 88.55 197.55 89.65
L 197.55 90.45 214.1 90.45 214.1 89.75
Q 214.1 89.65 214.1 89.5 214.1 87.45 213.6 85.55 213.25 83.4 212.3 81.5 211.1 78.7 208.95 76.35 208.6 75.85 208.1 75.5 208.1 75.35 208 75.25 206.55 73.95 205 72.85 201.4 70.45 197.1 69.75
M 278.8 69.5
L 262.15 69.5 262.15 143.55 278.8 143.55 278.8 69.5 Z"/>
</g>

<g id="veryRedCard_0_Layer1_0_FILL">
<path fill="#FF3019" fill-opacity="0.7490196078431373" stroke="none" d="
M 338 195.4
L 338 17.6
Q 338 0 320 0
L 18.05 0
Q 0 0 0 17.6
L 0 195.4
Q 0 213 18.05 213
L 320 213
Q 338 213 338 195.4 Z"/>
</g>

<g id="veryRedCard_0_Layer0_0_FILL">
<path fill="#FFFFFF" fill-opacity="0.34901960784313724" stroke="none" d="
M 77.15 123.15
L 62.2 123.15
Q 62.2 127 63.25 130.25 63.5 130.6 63.65 130.95 64.95 134.05 67.35 136.8 67.7 137.2 68.05 137.55
L 68.2 137.65
Q 68.4 137.9 68.55 138 69.85 139.2 71.3 140.2 74.75 142.55 79.1 143.3
L 79.2 143.3
Q 80.75 143.55 82.45 143.55 90.85 143.55 96.8 137.55 97.75 136.6 98.75 135.4 98.85 135.15 99.1 134.9
L 99.2 134.8
Q 100.15 133.35 100.9 131.8 102.8 127.95 102.8 123.15 102.8 120.55 102.2 118.15 102.1 117.8 101.95 117.55 100.9 113.7 98.35 110.6
L 87.7 123.15
Q 87.7 124.35 87.25 125.3 87.1 125.7 86.85 126.05 86.5 126.5 86.15 126.9 84.6 128.45 82.45 128.45 80.5 128.45 79.2 127.35
L 79.1 127.25
Q 78.95 127.1 78.75 126.9 78.35 126.5 78 126.05 77.75 125.7 77.65 125.3 77.15 124.35 77.15 123.15
M 76.35 91.65
L 76.2 91.65 65.55 104.35 85.65 121.25 85.8 121.25 96.45 108.65 76.35 91.65
M 128.55 98.75
L 112.05 98.75 112.05 143.55 128.55 143.55 128.55 98.75
M 159.35 88.9
L 142.7 88.9 142.7 143.55 159.35 143.55 159.35 88.9
M 112.05 69.5
L 112.05 95.85 128.55 95.85 128.55 69.5 112.05 69.5
M 90.7 72.85
Q 87.25 70.45 82.9 69.75 81.25 69.5 79.55 69.5 71.2 69.5 65.2 75.5
L 65.05 75.6
Q 64.1 76.55 63.25 77.65 59.2 82.9 59.2 89.85 59.2 90.1 59.3 90.45 59.3 91.05 59.3 91.8 59.3 92.25 59.45 92.75 59.7 94.2 60.05 95.6 60.15 96.2 60.5 96.95
L 60.5 97.05
Q 61.35 99.35 62.9 101.35 63.25 101.95 63.65 102.45
L 74.3 89.85
Q 74.3 88.3 75.15 87 75.5 86.5 75.85 86.15 76.7 85.3 77.75 84.95 78.6 84.6 79.55 84.6 81.5 84.6 82.9 85.8 83.05 85.9 83.3 86.15 83.65 86.5 84 87 84.85 88.3 84.85 89.85
L 99.8 89.85
Q 99.8 81.35 93.95 75.5
L 93.8 75.35
Q 92.4 73.95 90.7 72.85
M 259.35 119.7
L 259.35 93.35 242.7 93.35 242.7 119.7 259.35 119.7
M 214.1 123.55
Q 214.1 123.4 214.1 123.15
L 214.1 122.55 197.55 122.55 197.55 123.4
Q 197.45 124.5 196.85 125.3 196.6 125.55 196.5 125.8 195.4 126.9 193.85 126.9 192.3 126.9 191.2 125.8 190.35 124.95 190.15 123.65 190.15 123.55 190.15 123.3
L 190.15 122.55 173.5 122.55 173.5 123.3
Q 173.5 125.2 173.85 127 173.85 127.25 173.85 127.5 173.85 127.6 173.95 127.7 174.3 129.75 175.15 131.55 176.1 133.6 177.55 135.4 178.05 136.1 178.65 136.7 179 137.05 179.35 137.4 179.35 137.55 179.45 137.55 185.35 143.55 193.75 143.55 195.5 143.55 197.1 143.3 201.4 142.55 205 140.2 206.55 139.1 208 137.65 208.1 137.65 208.1 137.55 208.6 137.2 208.95 136.7 211.1 134.3 212.3 131.55 213.25 129.65 213.6 127.5 214.1 125.55 214.1 123.55
M 239.95 69.5
L 223.3 69.5 223.3 143.55 239.95 143.55 239.95 69.5
M 190 93.35
L 173.5 93.35 173.5 119.7 190 119.7 190 93.35
M 164.25 86.15
L 164.25 69.5 137.9 69.5 137.9 86.15 164.25 86.15
M 197.1 69.75
Q 195.5 69.5 193.75 69.5 185.35 69.5 179.45 75.5
L 179.35 75.5
Q 179 75.85 178.65 76.35 178.05 76.95 177.55 77.65 176.1 79.45 175.15 81.5 174.3 83.3 173.95 85.3 173.85 85.45 173.85 85.55 173.85 85.8 173.85 85.9 173.5 87.85 173.5 89.75
L 173.5 90.45 190.15 90.45 190.15 89.75
Q 190.15 89.5 190.15 89.25 190.35 88.05 191.2 87.25 192.3 86.15 193.85 86.15 195.4 86.15 196.5 87.25 196.6 87.45 196.85 87.7 197.45 88.55 197.55 89.65
L 197.55 90.45 214.1 90.45 214.1 89.75
Q 214.1 89.65 214.1 89.5 214.1 87.45 213.6 85.55 213.25 83.4 212.3 81.5 211.1 78.7 208.95 76.35 208.6 75.85 208.1 75.5 208.1 75.35 208 75.25 206.55 73.95 205 72.85 201.4 70.45 197.1 69.75
M 278.8 69.5
L 262.15 69.5 262.15 143.55 278.8 143.55 278.8 69.5 Z"/>
</g>
</defs>

<g transform="matrix( 1, 0, 0, 1, 0,0) ">
<g transform="matrix( -0.13958740234375, 0.38568115234375, -0.3212890625, -0.253814697265625, 189.4,53.65) ">
<g transform="matrix( 1, 0, 0, 1, 0,0) ">
<use xlink:href="#yellowCard_0_Layer1_0_FILL"/>
</g>

<g transform="matrix( 1, 0, 0, 1, 0,0) ">
<use xlink:href="#yellowCard_0_Layer0_0_FILL"/>
</g>
</g>

<g transform="matrix( -0.105499267578125, 0.396484375, -0.3965911865234375, -0.1056060791015625, 246.55,274.7) ">
<g transform="matrix( 1, 0, 0, 1, 0,0) ">
<use xlink:href="#orangeCard_0_Layer1_0_FILL"/>
</g>

<g transform="matrix( 1, 0, 0, 1, 0,0) ">
<use xlink:href="#orangeCard_0_Layer0_0_FILL"/>
</g>
</g>

<g transform="matrix( -0.103851318359375, 0.3961944580078125, -0.3143768310546875, 0.2633209228515625, 398.25,382.8) ">
<g transform="matrix( 1, 0, 0, 1, 0,0) ">
<use xlink:href="#orangeCard_0_Layer1_0_FILL"/>
</g>

<g transform="matrix( 1, 0, 0, 1, 0,0) ">
<use xlink:href="#orangeCard_0_Layer0_0_FILL"/>
</g>
</g>

<g transform="matrix( 0.3965911865234375, -0.1056060791015625, 0.105499267578125, 0.396484375, 190.2,118.8) ">
<g transform="matrix( 1, 0, 0, 1, 0,0) ">
<use xlink:href="#yellowCard_0_Layer1_0_FILL"/>
</g>

<g transform="matrix( 1, 0, 0, 1, 0,0) ">
<use xlink:href="#yellowCard_0_Layer0_0_FILL"/>
</g>
</g>

<g transform="matrix( 0.253997802734375, 0.3217926025390625, -0.3224029541015625, 0.2535552978515625, 565.15,788.25) ">
<g transform="matrix( 1, 0, 0, 1, 0,0) ">
<use xlink:href="#redCard_0_Layer1_0_FILL"/>
</g>

<g transform="matrix( 1, 0, 0, 1, 0,0) ">
<use xlink:href="#redCard_0_Layer0_0_FILL"/>
</g>
</g>

<g transform="matrix( 0.35272216796875, -0.2448883056640625, -0.1777496337890625, 0.3917388916015625, 557.95,671.6) ">
<g transform="matrix( 1, 0, 0, 1, 0,0) ">
<use xlink:href="#orangeCard_0_Layer1_0_FILL"/>
</g>

<g transform="matrix( 1, 0, 0, 1, 0,0) ">
<use xlink:href="#orangeCard_0_Layer0_0_FILL"/>
</g>
</g>

<g transform="matrix( 0.104217529296875, 0.3964691162109375, -0.3143768310546875, 0.2633209228515625, 423.15,637.85) ">
<g transform="matrix( 1, 0, 0, 1, 0,0) ">
<use xlink:href="#redCard_0_Layer1_0_FILL"/>
</g>

<g transform="matrix( 1, 0, 0, 1, 0,0) ">
<use xlink:href="#redCard_0_Layer0_0_FILL"/>
</g>
</g>

<g transform="matrix( 0.3234405517578125, -0.2523040771484375, 0.252777099609375, 0.3228302001953125, 383.8,354.9) ">
<g transform="matrix( 1, 0, 0, 1, 0,0) ">
<use xlink:href="#orangeCard_0_Layer1_0_FILL"/>
</g>

<g transform="matrix( 1, 0, 0, 1, 0,0) ">
<use xlink:href="#orangeCard_0_Layer0_0_FILL"/>
</g>
</g>

<g transform="matrix( 0.3882293701171875, 0.1322021484375, -0.084625244140625, 0.4008941650390625, 536.8,115.2) ">
<g transform="matrix( 1, 0, 0, 1, 0,0) ">
<use xlink:href="#yellowCard_0_Layer1_0_FILL"/>
</g>

<g transform="matrix( 1, 0, 0, 1, 0,0) ">
<use xlink:href="#yellowCard_0_Layer0_0_FILL"/>
</g>
</g>

<g transform="matrix( 0.3720245361328125, -0.1727294921875, 0.395751953125, 0.1063995361328125, 92.75,1056.95) ">
<g transform="matrix( 1, 0, 0, 1, 0,0) ">
<use xlink:href="#veryRedCard_0_Layer1_0_FILL"/>
</g>

<g transform="matrix( 1, 0, 0, 1, 0,0) ">
<use xlink:href="#veryRedCard_0_Layer0_0_FILL"/>
</g>
</g>

<g transform="matrix( 0.29022216796875, 0.2896270751953125, -0.2902374267578125, 0.28961181640625, 61,155.25) ">
<g transform="matrix( 1, 0, 0, 1, 0,0) ">
<use xlink:href="#yellowCard_0_Layer1_0_FILL"/>
</g>

<g transform="matrix( 1, 0, 0, 1, 0,0) ">
<use xlink:href="#yellowCard_0_Layer0_0_FILL"/>
</g>
</g>

<g transform="matrix( -0.168182373046875, -0.3734588623046875, -0.3361968994140625, -0.2348175048828125, 561.35,637.85) ">
<g transform="matrix( 1, 0, 0, 1, 0,0) ">
<use xlink:href="#orangeCard_0_Layer1_0_FILL"/>
</g>

<g transform="matrix( 1, 0, 0, 1, 0,0) ">
<use xlink:href="#orangeCard_0_Layer0_0_FILL"/>
</g>
</g>

<g transform="matrix( 0.385772705078125, 0.1397552490234375, 0.2033233642578125, 0.354888916015625, 503.25,976.55) ">
<g transform="matrix( 1, 0, 0, 1, 0,0) ">
<use xlink:href="#veryRedCard_0_Layer1_0_FILL"/>
</g>

<g transform="matrix( 1, 0, 0, 1, 0,0) ">
<use xlink:href="#veryRedCard_0_Layer0_0_FILL"/>
</g>
</g>

<g transform="matrix( 0.205352783203125, -0.3540191650390625, 0.4089508056640625, 0.03497314453125, 273.1,1092.15) ">
<g transform="matrix( 1, 0, 0, 1, 0,0) ">
<use xlink:href="#veryRedCard_0_Layer1_0_FILL"/>
</g>

<g transform="matrix( 1, 0, 0, 1, 0,0) ">
<use xlink:href="#veryRedCard_0_Layer0_0_FILL"/>
</g>
</g>
</g>
</svg>
