<svg id="Layer_1" data-name="Layer 1" xmlns="http://www.w3.org/2000/svg" viewBox="0 0 663.1 472.4"><defs><style>.cls-1,.cls-2{fill:#f60;}.cls-1{fill-opacity:0.85;}.cls-3{fill:#f30;}.cls-4{fill:#a0616a;}.cls-5{fill:#2f2e41;}.cls-6{fill:#e0720a;}.cls-7{fill:#e6e6e6;}.cls-8{fill:#3f3d56;}.cls-9{fill:#fff;}</style></defs><g id="yaSoUm_0_Layer0_0_FILL" data-name="yaSoUm 0 Layer0 0 FILL"><path class="cls-1" d="M528.4,233.05l1.1-.9h-1.1Z"/><path class="cls-2" d="M404.75,206.1v24q0,10,10,10H507.2q10,0,10-10v-12l62.2-41.8-62.2,29.8q0-10-10-10H414.75q-10,0-10,10M592.5,124.45,586.2,51.8h66.9q10,0,10-10V10q0-10-10-10H10Q0,0,0,10V41.8q0,10,10,10H565.85Z"/><path class="cls-3" d="M537.6,85.3q0-10-10-10H155.4q-10,0-10,10v30.2q0,6.41,4.1,8.7l-19.3,29.05L170,125.5H527.6q10,0,10-10Z"/></g><g id="yaSoUm_0_Layer0_1_FILL" data-name="yaSoUm 0 Layer0 1 FILL"><path class="cls-4" d="M587.7,234.86l-3.14,20.89L548.66,280a88.68,88.68,0,0,0-9.27,5.21q-9.1,5.94-8.38,9.44.4,1.82,3,2.67a13.44,13.44,0,0,0,5.81.46q8.14-.91,11.42-6.46l42.89-19.5,14.32-28.41Z"/></g><g id="yaSoUm_0_Layer0_2_FILL" data-name="yaSoUm 0 Layer0 2 FILL"><path class="cls-4" d="M606.73,434H592.45L594,456.25l15.34-1.06Z"/></g><g id="yaSoUm_0_Layer0_3_FILL" data-name="yaSoUm 0 Layer0 3 FILL"><path class="cls-5" d="M604.62,452l-8-2.64a33.6,33.6,0,0,0-1.32-3.89c-1.06-2.57-2-3.75-2.9-3.53l-3.17,5.84q-3.57,3.3-7.65,6.7-8.22,6.74-10.86,7.06a11.45,11.45,0,0,0-5.15,2.9q-3.47,3.71,5.15,7.66l21.41-.2a39.84,39.84,0,0,1,7.16.2,26.82,26.82,0,0,0,8,0c4.31-.42,6.57-1.31,6.8-2.67a16.56,16.56,0,0,0-.6-5.94l-1-3.56c-.33-2.6-.74-5.07-1.25-7.43-1-4.7-2-6.42-2.9-5.14A38.57,38.57,0,0,1,604.62,452Z"/></g><g id="yaSoUm_0_Layer0_4_FILL" data-name="yaSoUm 0 Layer0 4 FILL"><path class="cls-4" d="M646.42,434.31H632.14l1.58,22.2,15.34-1.05Z"/></g><g id="yaSoUm_0_Layer0_5_FILL" data-name="yaSoUm 0 Layer0 5 FILL"><path class="cls-5" d="M651,452.82c-1-4.71-2-6.42-2.91-5.15a41.66,41.66,0,0,1-3.76,4.62l-8-2.64a29.19,29.19,0,0,0-1.32-3.89c-1-2.58-2-3.75-2.9-3.53L629,448.07c-2.37,2.19-4.94,4.43-7.69,6.69q-8.17,6.74-10.85,7.06a11.47,11.47,0,0,0-5.15,2.91q-3.46,3.69,5.15,7.65H626.3l5.57-.46c3.88-.26,6.25-.29,7.13-.07a27.15,27.15,0,0,0,8,.07c4.31-.42,6.58-1.32,6.79-2.71a14.89,14.89,0,0,0-.59-5.67l-1-3.3Q651.73,456.34,651,452.82Z"/></g><g id="yaSoUm_0_Layer0_6_FILL" data-name="yaSoUm 0 Layer0 6 FILL"><path class="cls-5" d="M630,309.43a43.12,43.12,0,0,0,.26-4.82c0-3.43-.44-5.7-1.32-6.83s-10.67-1.46-29.36-1l-27.78,1-2.64,3.73V309L586.08,372l3.17,13.76.4,26.46q.78,26.46,2.77,26.46,1.58,0,9.93.4,7.5,0,7.52-2,0-3.18-1.06-75.13l14.29,27,3.47,23.89q3.69,23.91,5,24.25c1.58.39,4.72.33,9.4-.2q7.89-.9,8.58-3l-3.17-30.16a147.85,147.85,0,0,0-.85-17.85q-2-18.79-7.63-23.42-1.57-9-3.16-12.7-1.85-3.3-2.51-4.62a3.91,3.91,0,0,1-.13-3.86q1-1.65-.46-16.86Z"/></g><g id="yaSoUm_0_Layer0_7_FILL" data-name="yaSoUm 0 Layer0 7 FILL"><path class="cls-4" d="M617.29,149.67a16.49,16.49,0,1,0,4.78,11.62A15.89,15.89,0,0,0,617.29,149.67Z"/></g><g id="yaSoUm_0_Layer0_8_FILL" data-name="yaSoUm 0 Layer0 8 FILL"><path class="cls-4" d="M616,171.09,597.46,169q2.47,5.55,1.12,13.07a50.05,50.05,0,0,1-6.4,16l27-12.67L615,181.64Z"/></g><g id="yaSoUm_0_Layer0_9_FILL" data-name="yaSoUm 0 Layer0 9 FILL"><path class="cls-6" d="M597.46,187v-1q-4.68,2.77-6.83,9.87a90.23,90.23,0,0,0-4,22.4L585.32,241l-15.87,60.34q9.74,8.22,18.31,7.66,6.79-.47,21.88-8.18,11.58-6,17.29-2a7.63,7.63,0,0,1,3.36,5.14,1,1,0,0,0,.59-.46c.27-.44.07-1-.59-1.65s-.66-.79-.4-.79a2.67,2.67,0,0,0,2-.79c.53-.53.71-.79.53-.79a1,1,0,0,1-1-.83c-.2-.61-.25-.92-.14-.92a1.08,1.08,0,0,0,.66-.13c.36-.36-.35-2.11-2.11-5.28L634,252.55l5.27-56.09q-4-5-14.51-10.36l-9.8-4.46-16.4,11.65q-3.33,1.32-2.54-2.37Z"/></g><g id="yaSoUm_0_Layer0_10_FILL" data-name="yaSoUm 0 Layer0 10 FILL"><path class="cls-4" d="M625.77,233.25l8,19.56L615.21,292l-1.78,3.11a9.24,9.24,0,0,0,.2,7.48,63.89,63.89,0,0,0,4.75,9l.76-.46a9.11,9.11,0,0,0,1.62-1.72q2.37-3.3,2.37-8.91l27-38.63L648,230.08Z"/></g><g id="yaSoUm_0_Layer0_11_FILL" data-name="yaSoUm 0 Layer0 11 FILL"><path class="cls-6" d="M639,196.72a15.8,15.8,0,0,0-10.49-.36,12.33,12.33,0,0,0-2.84,1.29l-1,.69a20.24,20.24,0,0,0-4.22,19Q623.61,229,626.26,238l2.14-1.39A32,32,0,0,1,634,234q9-3.3,15.6.33a146.24,146.24,0,0,0-1.91-17.58Q644.65,198.75,639,196.72Z"/></g><g id="yaSoUm_0_Layer0_12_FILL" data-name="yaSoUm 0 Layer0 12 FILL"><path class="cls-5" d="M619.17,147.23a17.56,17.56,0,0,0-3.69-5.11q-4.92-4.81-10.92-3.27a37.77,37.77,0,0,0-11.19,4.55q-4,2.61-4.29,5.48a53.68,53.68,0,0,0,.23,9.4,8.06,8.06,0,0,1,.27-1.18,9,9,0,0,1,1.09-2.48,5.35,5.35,0,0,1,6.36-2.41,41.49,41.49,0,0,0,11.06.86c2.31-.06,4.33-.21,6.07-.43l1.65,15.05,1.68-1.32c1.32-.73,2.41-.75,3.27-.07.52.42,1-.18,1.55-1.81a21.84,21.84,0,0,0,.92-5.84Q623.59,149.44,619.17,147.23Z"/></g><g id="yaSoUm_0_Layer0_14_FILL" data-name="yaSoUm 0 Layer0 14 FILL"><path class="cls-4" d="M100.94,251.43q-2.82-1.41-10.31-1.6l-6.95.1-10.86,3.76-.25,2.56a23.13,23.13,0,0,0,.31,5.51q1.41,7.86,8.2,6.92l21.83-4.6q22.14-4.32,23.52-2.91a6.51,6.51,0,0,0,3.47,1.28,16.43,16.43,0,0,0,5.42-.09q7.11-1.38,6.64-7.64c-.32-4-2.87-5.83-7.68-5.57a22.69,22.69,0,0,0-4.91.81l-2.19.72q-5.42.75-11.43,1.22Q103.75,252.85,100.94,251.43Z"/></g><g id="yaSoUm_0_Layer0_15_FILL" data-name="yaSoUm 0 Layer0 15 FILL"><path class="cls-5" d="M105.73,307.48l-16.1.13L78,391.59,74.26,452q17.63.75,18,0a15.49,15.49,0,0,0-.56-3.89,17,17,0,0,1-.56-4.76q.24-1.16-1.54-7.07l-1.85-5.67L90.38,401q1.2-1.41,1.66-5.51l.22-3.85q3.51-3,5.86-15.5l1.63-11.87Z"/></g><g id="yaSoUm_0_Layer0_16_FILL" data-name="yaSoUm 0 Layer0 16 FILL"><path class="cls-5" d="M89.29,449.58a7.57,7.57,0,0,0-1,2.72l-15.38-3.41L69.5,459.1q-2.91,10.51-.35,12t25.15,1.22q11.27-.12,22-.56a6.69,6.69,0,0,0,2.57-2.6q1.53-3-3.6-4.92a31.68,31.68,0,0,1-4-.5,22.17,22.17,0,0,1-7.33-2.57,47.14,47.14,0,0,1-6.41-4.94l-3.14-2.92a18.31,18.31,0,0,0-.5-3.53q-.87-3.36-2.6-2.29A7,7,0,0,0,89.29,449.58Z"/></g><g id="yaSoUm_0_Layer0_17_FILL" data-name="yaSoUm 0 Layer0 17 FILL"><path class="cls-5" d="M102.91,462.51a24.26,24.26,0,0,1-8-2.82,55.43,55.43,0,0,1-7.07-5.42l-3.42-3.19a18.82,18.82,0,0,0-.56-3.88c-.63-2.45-1.57-3.28-2.82-2.51A7.36,7.36,0,0,0,78.77,447a7.71,7.71,0,0,0-1.13,3l-16.88-3.8L57,457.4q-3.2,11.53-.38,13.16T84.18,472q12.38-.12,24.18-.59a7.64,7.64,0,0,0,2.82-2.85q1.68-3.26-3.92-5.39A31.94,31.94,0,0,1,102.91,462.51Z"/></g><g id="yaSoUm_0_Layer0_18_FILL" data-name="yaSoUm 0 Layer0 18 FILL"><path class="cls-5" d="M55.22,306.2q-1.32,9.85,1,12.9T61,338.54c.8,5.47,1.44,10.73,2,15.78l-1.45,14.53Q59.6,384.6,57,390.71T55.66,416q.6,9.57,1.72,17.91L57,437.52c-.18,2.57,0,4.08.41,4.54a3.94,3.94,0,0,1,1,2.22,23.17,23.17,0,0,1,.13,3q0,1.82,10.9,2.66t12.27-1.31c.81-1.32.86-3.35.12-6.11a64,64,0,0,0-2.69-7.23q-1.15-2.82.06-22.86L80.61,393a10.48,10.48,0,0,1,.73-4.07,10,10,0,0,1,2.28-3.44q2.13-2.1,3.16-9l.6-6.42a104.25,104.25,0,0,1,2.25-16.5q1.2-5.13,3.7-26.52l2.28-20.35L57,297Z"/></g><g id="yaSoUm_0_Layer0_19_FILL" data-name="yaSoUm 0 Layer0 19 FILL"><path class="cls-4" d="M102.85,189c.44-1,.7-1.69.78-1.94a3.58,3.58,0,0,0,.06-2,4.66,4.66,0,0,0-1.91-2.29A53.83,53.83,0,0,0,96,178.85c-1.19-.79-2.15-1.4-2.88-1.82a5.66,5.66,0,0,0-3-1c-.06,1.5-.13,2.55-.22,3.13a9.57,9.57,0,0,1-.87,3,23.07,23.07,0,0,1-2,2.63c-1.23,1.48-1.88,2.14-1.94,2a3.05,3.05,0,0,0,1,1.22,14.25,14.25,0,0,0,1.41.85,46.46,46.46,0,0,1,7.71,5.41q2.31,1.95,7,6.36a17.29,17.29,0,0,1,.64-11.63Z"/></g><g id="yaSoUm_0_Layer0_20_FILL" data-name="yaSoUm 0 Layer0 20 FILL"><path class="cls-4" d="M119.63,176.22a15.63,15.63,0,1,0-5,11.39l.53-.53A14.83,14.83,0,0,0,119.63,176.22Z"/></g><g id="yaSoUm_0_Layer0_21_FILL" data-name="yaSoUm 0 Layer0 21 FILL"><path class="cls-7" d="M105.38,205.5q-.59-7.71-5.26-10.53L84,185.24a1.91,1.91,0,0,0-1.44.5c-1,.81-1.81,2.38-2.32,4.73a32,32,0,0,0-11,4.6Q58,202.21,56.63,214.86t-.09,32.5q.65,10,1.59,17.35l-2.19,14.68a218.8,218.8,0,0,1-5.32,25.08l-.28.41c-.11.27,0,.45.47.53q2.09.34,11.46-2.44t26.24,4.7a99.86,99.86,0,0,1,15,8,12.92,12.92,0,0,0,1.32-1.54,5.48,5.48,0,0,0,1.31-3q0-1.92,3-30.78,3-29.85,3.79-33.35.9-4.2-2.26-18.91-3.23-15-5.6-15.57A26.23,26.23,0,0,0,105.38,205.5Z"/></g><g id="yaSoUm_0_Layer0_22_FILL" data-name="yaSoUm 0 Layer0 22 FILL"><path class="cls-8" d="M121.54,157.49a9.22,9.22,0,0,1-1.82-1q-.68-.56-15.37-4A14.89,14.89,0,0,0,86.88,162q-3.13,8.58-2.95,9.74a22.67,22.67,0,0,0,2.6,6.2,16.26,16.26,0,0,1,2.29,6.2,7.72,7.72,0,0,1,1.63-3.35,7.19,7.19,0,0,1,3-2.16,1.44,1.44,0,0,1,1-.12,1.14,1.14,0,0,1,.47.34c.09.1.21.27.38.5A4.58,4.58,0,0,0,97,180.7a2.27,2.27,0,0,0,2.1.22q.47-.25.66-1.41a2.52,2.52,0,0,1,.87-1.69,6.58,6.58,0,0,1,3-.82,5.61,5.61,0,0,0,3-.88,5.08,5.08,0,0,0,1.44-2.25,12.13,12.13,0,0,1,1.15-2.51q1.83-2.56,7.27-2.31H119a4.39,4.39,0,0,0,3.85-2.57,12.42,12.42,0,0,0,.91-2.35c.8-2.61.64-4.46-.47-5.57A5.54,5.54,0,0,0,121.54,157.49Z"/></g><g id="yaSoUm_0_Layer0_23_FILL" data-name="yaSoUm 0 Layer0 23 FILL"><path class="cls-8" d="M107.14,259.82a1.73,1.73,0,0,0,.47,1.22l10.83,11.18a1.69,1.69,0,0,0,1.19.53,1.77,1.77,0,0,0,1.22-.46h0l33-32.84a1.69,1.69,0,0,0,0-2.4h0l-.29-.22-13-8.46a1.65,1.65,0,0,0-1.1-.25,1.7,1.7,0,0,0-1,.47l-30.81,30.09A1.74,1.74,0,0,0,107.14,259.82Z"/></g><g id="yaSoUm_0_Layer0_24_FILL" data-name="yaSoUm 0 Layer0 24 FILL"><path class="cls-6" d="M107.07,260.14a1.41,1.41,0,0,0,.54.9l10.83,11.18a1.69,1.69,0,0,0,1.19.53,1.77,1.77,0,0,0,1.22-.46h0l33-32.84a1.6,1.6,0,0,0,.5-1,1.56,1.56,0,0,0-.29-1.09l-.21.28L121,271a1.71,1.71,0,0,1-2.42,0h0l-11-11.68-.19-.25A1.6,1.6,0,0,0,107.07,260.14Z"/></g><g id="yaSoUm_0_Layer0_25_FILL" data-name="yaSoUm 0 Layer0 25 FILL"><path class="cls-9" d="M109,259.26h0l10.61,10.33a.38.38,0,0,0,.31.16.39.39,0,0,0,.32-.16l30.84-31.19a.41.41,0,0,0,.16-.34.38.38,0,0,0-.16-.31l-1.41-.94a1.34,1.34,0,0,1,.13,1,1.36,1.36,0,0,1-.63.78,1.16,1.16,0,0,1-1.35-.06l-8.7-6a1.28,1.28,0,0,1-.33-1.78h0a1.21,1.21,0,0,1,.66-.47l-.69-.43a.37.37,0,0,0-.52,0v.05L109,258.6a.44.44,0,0,0,0,.62Z"/></g><g id="yaSoUm_0_Layer0_26_FILL" data-name="yaSoUm 0 Layer0 26 FILL"><path class="cls-7" d="M117.28,252.25l9,8.45,21.32-21.07-10.83-7Z"/></g><g id="yaSoUm_0_Layer0_27_FILL" data-name="yaSoUm 0 Layer0 27 FILL"><path class="cls-6" d="M117.5,257.41a2.1,2.1,0,1,0,0,4.2A1.93,1.93,0,0,0,119,261a2,2,0,0,0,.11-2.83h0L119,258A1.92,1.92,0,0,0,117.5,257.41Z"/></g><g id="yaSoUm_0_Layer0_28_FILL" data-name="yaSoUm 0 Layer0 28 FILL"><path class="cls-4" d="M104.82,246.08q-12,.9-14.81-.47c-1.87-.91-5.31-1.45-10.3-1.6l-6.95.09-10.87,3.73-.25,2.57a24.79,24.79,0,0,0,.28,5.51q1.41,7.86,8.21,6.92L92,258.26q22.11-4.32,23.52-2.92a6.41,6.41,0,0,0,3.47,1.29,15.5,15.5,0,0,0,5.39-.13q7.11-1.37,6.64-7.64-.45-5.94-7.64-5.57a22.73,22.73,0,0,0-4.92.85l-2.19.72Q110.81,245.61,104.82,246.08Z"/></g><g id="yaSoUm_0_Layer0_29_FILL" data-name="yaSoUm 0 Layer0 29 FILL"><path class="cls-7" d="M88.88,218.58c-.21-2.31-.39-4.25-.56-5.82A40.64,40.64,0,0,0,87,205.34q-2.59-9.15-9.74-9.61a16,16,0,0,0-8.42,4q-8.45,7-8.45,22.27v31.12L81,244.48q2.16-5.07,4.23-10.83Q89.36,222.12,88.88,218.58Z"/></g><path class="cls-9" d="M41.45,11.39V35.48H35.58V20.39L30.36,35.48H25.29L20.05,20.41V35.48H14.18V11.39h7.15L27.9,28.14l6.39-16.75Z"/><path class="cls-9" d="M49.87,16.32l4.58,11.74,4.29-11.74H65.2L53.29,44.53H46.85l4.49-9.78-8-18.43Z"/><path class="cls-9" d="M92,26.94H78.73a4.43,4.43,0,0,0,1.1,3.1,3.55,3.55,0,0,0,2.53,1,3.44,3.44,0,0,0,2.15-.65,3.11,3.11,0,0,0,1.14-1.74h6.19a8,8,0,0,1-1.64,3.61A8.75,8.75,0,0,1,87,34.74a10.2,10.2,0,0,1-4.35.91,10.31,10.31,0,0,1-5-1.15,8.41,8.41,0,0,1-3.42-3.42A10.52,10.52,0,0,1,73,25.89a10.65,10.65,0,0,1,1.22-5.22,8.29,8.29,0,0,1,3.43-3.41,10.45,10.45,0,0,1,5-1.18,10.34,10.34,0,0,1,5,1.17A8.15,8.15,0,0,1,91,20.52a9.61,9.61,0,0,1,1.18,4.84A7.64,7.64,0,0,1,92,26.94Zm-6.76-5.29a3.71,3.71,0,0,0-2.59-1,3.83,3.83,0,0,0-2.67,1,4,4,0,0,0-1.2,2.8h7.46A3.5,3.5,0,0,0,85.22,21.65Z"/><path class="cls-9" d="M125.5,18.29a8.54,8.54,0,0,1,2,6.05V35.48h-5.87V25a3.93,3.93,0,0,0-1-2.83,4.09,4.09,0,0,0-5.4.1,4.24,4.24,0,0,0-1,3V35.48h-5.87V25a3.93,3.93,0,0,0-1-2.83,3.44,3.44,0,0,0-2.64-1,3.63,3.63,0,0,0-2.71,1,4.21,4.21,0,0,0-1,3V35.48H95.24V16.32h5.87v3.26a5.66,5.66,0,0,1,2.31-2.53,7,7,0,0,1,3.65-.93,7.25,7.25,0,0,1,3.91,1A6.28,6.28,0,0,1,113.51,20a8,8,0,0,1,2.73-2.84,7.06,7.06,0,0,1,3.82-1.06A7.22,7.22,0,0,1,125.5,18.29Z"/><path class="cls-9" d="M142.44,17.08a6,6,0,0,1,2.33,2.75V16.32h5.86V35.48h-5.86V32a6,6,0,0,1-2.33,2.7,6.76,6.76,0,0,1-3.77,1,7.73,7.73,0,0,1-4.22-1.15,8.13,8.13,0,0,1-2.94-3.42,11.74,11.74,0,0,1-1.07-5.19,11.73,11.73,0,0,1,1.07-5.22,8.14,8.14,0,0,1,2.94-3.4,7.76,7.76,0,0,1,4.22-1.18A6.86,6.86,0,0,1,142.44,17.08Zm-4.89,5.38a4.84,4.84,0,0,0-1.15,3.42,4.84,4.84,0,0,0,1.15,3.42,4.27,4.27,0,0,0,6.06,0,4.75,4.75,0,0,0,1.18-3.38,4.78,4.78,0,0,0-1.18-3.41,4,4,0,0,0-3-1.26,3.92,3.92,0,0,0-3.05,1.21Z"/><path class="cls-9" d="M155,8.74a4.11,4.11,0,0,1,5.06,0,2.95,2.95,0,0,1,0,4.39,4.11,4.11,0,0,1-5.06,0,2.86,2.86,0,0,1-1-2.19A2.83,2.83,0,0,1,155,8.74Zm5.44,7.58V35.48h-5.86V16.32Z"/><path class="cls-9" d="M170.37,10.09V35.48H164.5V10.09Z"/><path class="cls-9" d="M181.67,8.74a4.13,4.13,0,0,1,5.07,0,2.95,2.95,0,0,1,0,4.39,4.13,4.13,0,0,1-5.07,0,2.86,2.86,0,0,1-1-2.19A2.9,2.9,0,0,1,181.67,8.74Zm5.45,7.58V35.48h-5.87V16.32Z"/><path class="cls-9" d="M203.9,17.87a7.87,7.87,0,0,1,2.73,4.79h-5.47a3.05,3.05,0,0,0-1.09-1.83,3.25,3.25,0,0,0-2.1-.66,2.32,2.32,0,0,0-1.51.42,1.5,1.5,0,0,0-.51,1.22,1.42,1.42,0,0,0,1,1.33,14.35,14.35,0,0,0,2.93.89,27.86,27.86,0,0,1,3.59,1,5.87,5.87,0,0,1,2.44,1.73,4.78,4.78,0,0,1,1,3.22A4.94,4.94,0,0,1,206,33a5.89,5.89,0,0,1-2.58,2,10,10,0,0,1-4,.72,10.24,10.24,0,0,1-6.19-1.71A7.22,7.22,0,0,1,190.4,29h5.65a2.56,2.56,0,0,0,1,1.89,4,4,0,0,0,2.34.64,2.16,2.16,0,0,0,1.51-.46,1.57,1.57,0,0,0,.52-1.21,1.47,1.47,0,0,0-1-1.43,17.92,17.92,0,0,0-3.06-.9,24.9,24.9,0,0,1-3.39-.9A5.65,5.65,0,0,1,191.68,25a4.6,4.6,0,0,1-1-3.13,5.14,5.14,0,0,1,2-4.17,8.51,8.51,0,0,1,5.5-1.59A8.76,8.76,0,0,1,203.9,17.87Z"/><path class="cls-9" d="M229.76,17.87a8,8,0,0,1,2.72,4.79H227a3,3,0,0,0-1.08-1.83,3.23,3.23,0,0,0-2.1-.66,2.32,2.32,0,0,0-1.51.42,1.53,1.53,0,0,0-.52,1.22,1.42,1.42,0,0,0,1,1.33,14.44,14.44,0,0,0,2.94.89,32.22,32.22,0,0,1,3.6,1,6,6,0,0,1,2.42,1.73,4.75,4.75,0,0,1,1,3.22,4.92,4.92,0,0,1-.89,2.93,5.89,5.89,0,0,1-2.56,2,10.06,10.06,0,0,1-4,.72,10.27,10.27,0,0,1-6.2-1.71A7.21,7.21,0,0,1,216.3,29h5.64A2.57,2.57,0,0,0,223,30.93a4,4,0,0,0,2.34.63,2.16,2.16,0,0,0,1.51-.46,1.53,1.53,0,0,0,.51-1.21,1.48,1.48,0,0,0-1-1.43,17.92,17.92,0,0,0-3.06-.9,26.14,26.14,0,0,1-3.49-1,5.83,5.83,0,0,1-2.37-1.67,4.6,4.6,0,0,1-1-3.13,5.11,5.11,0,0,1,2-4.16A8.51,8.51,0,0,1,224,16,8.78,8.78,0,0,1,229.76,17.87Z"/><path class="cls-9" d="M246.85,30.4v5.08h-2.64A7.6,7.6,0,0,1,239,33.81c-1.25-1.1-1.87-2.94-1.86-5.49V21.25h-2.6V16.36h2.54V11.67h5.87v4.69h3.84v4.89h-3.84v7.13A2.17,2.17,0,0,0,243.4,30a2.27,2.27,0,0,0,1.57.45Z"/><path class="cls-9" d="M268.08,26.94H254.84a4.42,4.42,0,0,0,1.09,3.1,3.55,3.55,0,0,0,2.53,1,3.49,3.49,0,0,0,2.16-.65,3.15,3.15,0,0,0,1.13-1.74h6.19a8.09,8.09,0,0,1-1.64,3.61,8.67,8.67,0,0,1-3.22,2.5,10.13,10.13,0,0,1-4.34.91,10.31,10.31,0,0,1-5-1.18,8.52,8.52,0,0,1-3.4-3.41,10.59,10.59,0,0,1-1.24-5.2,10.78,10.78,0,0,1,1.22-5.22,8.37,8.37,0,0,1,3.37-3.38,11.2,11.2,0,0,1,10,0A8.25,8.25,0,0,1,267,20.53a9.75,9.75,0,0,1,1.19,4.84A8.26,8.26,0,0,1,268.08,26.94Zm-6.76-5.29a3.68,3.68,0,0,0-2.58-1,3.81,3.81,0,0,0-2.67,1,4,4,0,0,0-1.21,2.8h7.47A3.55,3.55,0,0,0,261.32,21.65Z"/><path class="cls-9" d="M287.44,17.26a8.12,8.12,0,0,1,2.93,3.4,11.74,11.74,0,0,1,1.09,5.22,11.75,11.75,0,0,1-1.09,5.19,8,8,0,0,1-2.93,3.42,7.82,7.82,0,0,1-4.23,1.18,6.73,6.73,0,0,1-3.76-1A5.65,5.65,0,0,1,277.18,32V44.53h-5.87V16.32h5.87v3.51a5.81,5.81,0,0,1,2.28-2.71,6.78,6.78,0,0,1,3.77-1A7.89,7.89,0,0,1,287.44,17.26Zm-9.14,5.21a4.72,4.72,0,0,0-1.18,3.41,4.73,4.73,0,0,0,1.18,3.39,4,4,0,0,0,3,1.27,3.9,3.9,0,0,0,3-1.24,4.89,4.89,0,0,0,1.15-3.42,4.84,4.84,0,0,0-1.15-3.42,3.9,3.9,0,0,0-3-1.24A4,4,0,0,0,278.3,22.47Z"/><path class="cls-9" d="M311.85,18.31a8.79,8.79,0,0,1,2,6V35.48h-5.87V25a4.21,4.21,0,0,0-1-3A3.49,3.49,0,0,0,304.27,21a3.68,3.68,0,0,0-2.83,1.13,4.57,4.57,0,0,0-1,3.21V35.48h-5.87V10.09h5.87v9.74a6.14,6.14,0,0,1,2.44-2.7,7.12,7.12,0,0,1,3.82-1A6.64,6.64,0,0,1,311.85,18.31Z"/><path class="cls-9" d="M327.06,13.72a2.89,2.89,0,0,0-2.08.62,2.86,2.86,0,0,0-.73,2h3.47v4.89h-3.5V35.48h-5.86V21.25h-2.3V16.36h2.3v-.2a7.17,7.17,0,0,1,2.06-5.5,8.49,8.49,0,0,1,6-2h1.24v5Z"/><path class="cls-9" d="M344.27,17.26a8.74,8.74,0,0,1,3.53,3.42,10.26,10.26,0,0,1,1.28,5.2,10.2,10.2,0,0,1-1.28,5.19,8.76,8.76,0,0,1-3.53,3.43,10.81,10.81,0,0,1-5.08,1.18,10.93,10.93,0,0,1-5.11-1.18,8.7,8.7,0,0,1-3.54-3.42,10.2,10.2,0,0,1-1.28-5.19,10.26,10.26,0,0,1,1.28-5.2,8.7,8.7,0,0,1,3.54-3.42,10.93,10.93,0,0,1,5.11-1.18A10.8,10.8,0,0,1,344.27,17.26Zm-7.91,5.11a4.87,4.87,0,0,0-1.15,3.51,4.88,4.88,0,0,0,1.15,3.48,3.78,3.78,0,0,0,2.83,1.23,3.7,3.7,0,0,0,2.8-1.21,4.78,4.78,0,0,0,1.13-3.48A4.88,4.88,0,0,0,342,22.39a3.61,3.61,0,0,0-2.8-1.21A3.71,3.71,0,0,0,336.36,22.37Z"/><path class="cls-9" d="M360.81,17.15a7.14,7.14,0,0,1,3.74-1v6.27h-1.68a5.78,5.78,0,0,0-3.61,1A4,4,0,0,0,358,26.72v8.76h-5.87V16.32H358v3.59A8.39,8.39,0,0,1,360.81,17.15Z"/><path class="cls-9" d="M378,17.08a6,6,0,0,1,2.33,2.75V16.32h5.82V35.48h-5.82V32a6,6,0,0,1-2.33,2.7,6.73,6.73,0,0,1-3.76,1,7.77,7.77,0,0,1-4.18-1.15,8.13,8.13,0,0,1-2.94-3.42,11.74,11.74,0,0,1-1.08-5.19,11.87,11.87,0,0,1,1.08-5.22,8.08,8.08,0,0,1,2.94-3.4,7.76,7.76,0,0,1,4.22-1.18A6.86,6.86,0,0,1,378,17.08Zm-4.89,5.38A4.74,4.74,0,0,0,372,25.88a4.78,4.78,0,0,0,1.15,3.42,3.9,3.9,0,0,0,3,1.29,4,4,0,0,0,3-1.28,4.75,4.75,0,0,0,1.18-3.38,4.72,4.72,0,0,0-1.18-3.41,4,4,0,0,0-3-1.26,3.91,3.91,0,0,0-3,1.2Z"/><path class="cls-9" d="M394.64,16.32l4.59,11.74,4.28-11.74H410L398.06,44.53h-6.44l4.49-9.78-8-18.38Z"/><path class="cls-9" d="M443.84,9.15a14.24,14.24,0,0,1,6.35,5.44,16,16,0,0,1,2.24,8.65A13.58,13.58,0,0,1,451,29.52,11.77,11.77,0,0,1,447.05,34a9.08,9.08,0,0,1-5.23,1.66,7,7,0,0,1-4-1.07,4.7,4.7,0,0,1-2-3.31A8.77,8.77,0,0,1,433,34.58a7.45,7.45,0,0,1-4.16,1.12,6.65,6.65,0,0,1-6.25-3.82,9.5,9.5,0,0,1-.9-4.23,12.37,12.37,0,0,1,.06-1.33,11.1,11.1,0,0,1,1.76-5.26,10.79,10.79,0,0,1,4-3.61,11.23,11.23,0,0,1,5.39-1.3,9,9,0,0,1,6,2,6.71,6.71,0,0,1,2.27,5.39,8.93,8.93,0,0,1-.1,1.37l-.45,3.19c0,.41-.07.69-.07.82a1.92,1.92,0,0,0,.4,1.35,1.7,1.7,0,0,0,1.22.4,3.23,3.23,0,0,0,2.07-.81,5.75,5.75,0,0,0,1.59-2.41,10.87,10.87,0,0,0,.61-3.92,11.6,11.6,0,0,0-1.51-6,10,10,0,0,0-4.51-4,16.78,16.78,0,0,0-7.22-1.41,17.52,17.52,0,0,0-8.74,2.05A13.73,13.73,0,0,0,419,19.7a16.3,16.3,0,0,0-1.87,7.89q0,5.88,3.54,9.19T431.31,40l-1.09,4.77A23.51,23.51,0,0,1,420,42.65a14.53,14.53,0,0,1-6.35-5.87,18.42,18.42,0,0,1-2.16-9.14,19,19,0,0,1,3.07-10.76,19.87,19.87,0,0,1,8.25-7,26.29,26.29,0,0,1,11.38-2.45A23.39,23.39,0,0,1,443.84,9.15Zm-9.35,13a3.71,3.71,0,0,0-2.6-.92,4.32,4.32,0,0,0-2.19.6A4.41,4.41,0,0,0,428,23.67a6.71,6.71,0,0,0-.65,3.09,3.68,3.68,0,0,0,1,2.85,3.64,3.64,0,0,0,2.53,1,4.39,4.39,0,0,0,2.21-.6,4.53,4.53,0,0,0,1.71-1.87,6.6,6.6,0,0,0,.67-3.15,3.63,3.63,0,0,0-1-2.83Z"/><path class="cls-9" d="M466.47,17.08a5.88,5.88,0,0,1,2.32,2.75V16.32h5.87v19a10.8,10.8,0,0,1-1,4.81,7.93,7.93,0,0,1-3.14,3.42,10.26,10.26,0,0,1-5.28,1.26,10.77,10.77,0,0,1-6.89-2,8.26,8.26,0,0,1-3.12-5.52H461a2.9,2.9,0,0,0,1.25,1.81,4.53,4.53,0,0,0,2.54.65,4.17,4.17,0,0,0,2.94-1,4.46,4.46,0,0,0,1.1-3.35V32a5.89,5.89,0,0,1-2.33,2.7,6.73,6.73,0,0,1-3.76,1,7.72,7.72,0,0,1-4.26-1.15,8.11,8.11,0,0,1-2.93-3.42,11.74,11.74,0,0,1-1.08-5.19,11.87,11.87,0,0,1,1.08-5.22,8.19,8.19,0,0,1,2.93-3.4,7.82,7.82,0,0,1,4.23-1.18A6.88,6.88,0,0,1,466.47,17.08Zm-4.9,5.38a4.79,4.79,0,0,0-1.14,3.42,4.88,4.88,0,0,0,1.14,3.42,4.29,4.29,0,0,0,6.07,0,4.79,4.79,0,0,0,1.17-3.38,4.77,4.77,0,0,0-1.17-3.41,4,4,0,0,0-3-1.26,4,4,0,0,0-3.06,1.21Z"/><path class="cls-9" d="M509,18.29a8.52,8.52,0,0,1,2,6.05V35.48h-5.82V25a3.93,3.93,0,0,0-1-2.83,3.49,3.49,0,0,0-2.66-1,3.54,3.54,0,0,0-2.75,1.07,4.27,4.27,0,0,0-1,3V35.48H491.9V25a3.93,3.93,0,0,0-1-2.83,3.44,3.44,0,0,0-2.64-1,3.62,3.62,0,0,0-2.76,1,4.17,4.17,0,0,0-1,3V35.48h-5.87V16.32h5.87v3.26a5.66,5.66,0,0,1,2.31-2.53,7,7,0,0,1,3.65-.93,7.26,7.26,0,0,1,3.86,1A6.28,6.28,0,0,1,496.89,20a8,8,0,0,1,2.73-2.84A7.82,7.82,0,0,1,509,18.29Z"/><path class="cls-9" d="M525.9,17.08a5.88,5.88,0,0,1,2.32,2.75V16.32h5.87V35.48h-5.87V32a5.92,5.92,0,0,1-2.32,2.7,6.78,6.78,0,0,1-3.77,1,7.73,7.73,0,0,1-4.22-1.15A8.13,8.13,0,0,1,515,31.08a11.88,11.88,0,0,1-1.08-5.19A11.87,11.87,0,0,1,515,20.67a8.14,8.14,0,0,1,2.94-3.4,7.76,7.76,0,0,1,4.22-1.18A6.86,6.86,0,0,1,525.9,17.08ZM521,22.46a4.84,4.84,0,0,0-1.15,3.42A4.84,4.84,0,0,0,521,29.3a4.27,4.27,0,0,0,6.06,0,4.7,4.7,0,0,0,1.17-3.38,4.77,4.77,0,0,0-1.17-3.41,4,4,0,0,0-3-1.26,3.92,3.92,0,0,0-3,1.21Z"/><path class="cls-9" d="M538.49,8.74a4.13,4.13,0,0,1,5.07,0,2.95,2.95,0,0,1,0,4.39,4.13,4.13,0,0,1-5.07,0,3,3,0,0,1,0-4.39Zm5.45,7.58V35.48h-5.87V16.32Z"/><path class="cls-9" d="M553.83,10.09V35.48H548V10.09Z"/><path class="cls-9" d="M562.91,29.61v5.87h-6.07V29.61Z"/><path class="cls-9" d="M580.78,18.12a9.12,9.12,0,0,1,3.15,5.62h-6.2a3.12,3.12,0,0,0-3.29-2.64,3.11,3.11,0,0,0-2.53,1.21,5.48,5.48,0,0,0-1,3.55,5.44,5.44,0,0,0,1,3.54,3.15,3.15,0,0,0,2.53,1.22,3.36,3.36,0,0,0,2.16-.69,3.3,3.3,0,0,0,1.13-2h6.2a9.05,9.05,0,0,1-3.15,5.6,9.47,9.47,0,0,1-6.2,2,10.31,10.31,0,0,1-4.94-1.11,8.57,8.57,0,0,1-3.41-3.42A10.63,10.63,0,0,1,565,25.89a10.54,10.54,0,0,1,1.22-5.22,8.37,8.37,0,0,1,3.4-3.4,10.46,10.46,0,0,1,5-1.18A9.47,9.47,0,0,1,580.78,18.12Z"/><path class="cls-9" d="M601,17.26a8.74,8.74,0,0,1,3.53,3.42,10.26,10.26,0,0,1,1.31,5.2,10.2,10.2,0,0,1-1.28,5.19A8.71,8.71,0,0,1,601,34.5a11.57,11.57,0,0,1-10.18,0,8.53,8.53,0,0,1-3.56-3.43A10.11,10.11,0,0,1,586,25.88a10.17,10.17,0,0,1,1.29-5.2,8.58,8.58,0,0,1,3.54-3.42,11.61,11.61,0,0,1,10.2,0Zm-7.88,5.11A4.93,4.93,0,0,0,592,25.88a4.83,4.83,0,0,0,1.14,3.48,3.75,3.75,0,0,0,2.8,1.23,3.7,3.7,0,0,0,2.81-1.21,4.89,4.89,0,0,0,1.12-3.48,5,5,0,0,0-1.12-3.51,3.67,3.67,0,0,0-2.81-1.21A3.71,3.71,0,0,0,593.11,22.37Z"/><path class="cls-9" d="M639.15,18.29a8.54,8.54,0,0,1,2,6.05V35.48H635.3V25a3.93,3.93,0,0,0-1-2.83,3.5,3.5,0,0,0-2.65-1,3.61,3.61,0,0,0-2.76,1.07,4.27,4.27,0,0,0-1,3V35.48h-5.87V25a3.93,3.93,0,0,0-1-2.83,3.44,3.44,0,0,0-2.63-1,3.64,3.64,0,0,0-2.78,1.06,4.21,4.21,0,0,0-1,3V35.48h-5.87V16.32h5.87v3.26A5.66,5.66,0,0,1,617,17.05a7,7,0,0,1,3.65-.93,7.34,7.34,0,0,1,3.91,1A6.38,6.38,0,0,1,627.1,20a7.64,7.64,0,0,1,2.72-2.84,7.81,7.81,0,0,1,9.36,1.11Z"/><path class="cls-9" d="M650.1,29.61v5.87h-6.05V29.61Z"/><path class="cls-9" d="M175.21,92.32a7.87,7.87,0,0,1,2.73,4.8h-5.49a3.05,3.05,0,0,0-1.09-1.83,3.22,3.22,0,0,0-2.11-.68,2.34,2.34,0,0,0-1.51.43,1.55,1.55,0,0,0-.52,1.23,1.43,1.43,0,0,0,1,1.33,15.22,15.22,0,0,0,3,.9,28.47,28.47,0,0,1,3.6,1,5.94,5.94,0,0,1,2.44,1.72,4.77,4.77,0,0,1,1,3.23,4.83,4.83,0,0,1-.9,2.94,5.86,5.86,0,0,1-2.57,2,10.06,10.06,0,0,1-4,.72,10.29,10.29,0,0,1-6.22-1.71,7.3,7.3,0,0,1-2.85-4.91h5.67a2.52,2.52,0,0,0,1,1.88,3.88,3.88,0,0,0,2.36.66,2.17,2.17,0,0,0,1.51-.46,1.57,1.57,0,0,0,.51-1.22,1.47,1.47,0,0,0-1-1.43,16.7,16.7,0,0,0-3.08-.9,24.89,24.89,0,0,1-3.5-1,5.62,5.62,0,0,1-2.36-1.66,4.62,4.62,0,0,1-1-3.14,5.13,5.13,0,0,1,2-4.18,8.51,8.51,0,0,1,5.52-1.6A8.76,8.76,0,0,1,175.21,92.32Z"/><path class="cls-9" d="M192.33,104.85v5.05h-2.64a7.65,7.65,0,0,1-5.24-1.67q-1.84-1.71-1.85-5.51v-7H180V90.82h2.58V86.11h5.88v4.71h3.85v4.91h-3.85v7.14a2.11,2.11,0,0,0,.48,1.58,2.14,2.14,0,0,0,1.56.45Z"/><path class="cls-9" d="M213.65,101.38H200.37a4.43,4.43,0,0,0,1.09,3.11,3.55,3.55,0,0,0,2.55,1,3.43,3.43,0,0,0,2.15-.64,3.08,3.08,0,0,0,1.14-1.69h6.21a7.93,7.93,0,0,1-1.65,3.62,8.69,8.69,0,0,1-3.22,2.51,11,11,0,0,1-9.35-.28,8.49,8.49,0,0,1-3.43-3.42,11.71,11.71,0,0,1,0-10.45,8.28,8.28,0,0,1,3.42-3.44,11.25,11.25,0,0,1,10,0A8.27,8.27,0,0,1,212.65,95a9.8,9.8,0,0,1,1.19,4.91A8.54,8.54,0,0,1,213.65,101.38Zm-6.78-5.31a3.74,3.74,0,0,0-2.59-1,3.88,3.88,0,0,0-2.68,1,4.05,4.05,0,0,0-1.2,2.82h7.48a3.53,3.53,0,0,0-1-2.82Z"/><path class="cls-9" d="M226.29,88.13a3,3,0,0,0-2.09.61,2.9,2.9,0,0,0-.73,2h3.47v4.9h-3.47v14.22h-5.89V95.73h-2.3V90.82h2.3v-.29A7.16,7.16,0,0,1,219.66,85a8.54,8.54,0,0,1,6-2h1.24v5Z"/><path class="cls-9" d="M229,105.43v-4.9l11.08-15.22h6.28v15h2.94v5.11h-2.94v4.47h-5.89v-4.47Zm12-13.32-6,8.21h6Z"/><path class="cls-9" d="M263.65,91.49A5.93,5.93,0,0,1,266,94.2V90.74h5.84V109.9H266v-3.48a5.89,5.89,0,0,1-2.33,2.72,6.8,6.8,0,0,1-3.78,1,7.83,7.83,0,0,1-4.24-1.18,8.22,8.22,0,0,1-2.94-3.43,13.18,13.18,0,0,1,0-10.45,8.2,8.2,0,0,1,2.94-3.4,7.75,7.75,0,0,1,4.24-1.19A6.86,6.86,0,0,1,263.65,91.49Zm-4.91,5.4a5.72,5.72,0,0,0,0,6.87,4.33,4.33,0,0,0,6.09,0,5.54,5.54,0,0,0,0-6.87,4,4,0,0,0-3-1.26,4,4,0,0,0-3.07,1.26Z"/><path class="cls-9" d="M307.88,83.54A14.3,14.3,0,0,1,314.26,89a16.09,16.09,0,0,1,2.24,8.69,13.41,13.41,0,0,1-1.45,6.28,11.91,11.91,0,0,1-3.92,4.53,9.28,9.28,0,0,1-5.26,1.67,7,7,0,0,1-4-1.08,4.68,4.68,0,0,1-2-3.31,8.54,8.54,0,0,1-2.83,3.25,7.34,7.34,0,0,1-4.17,1.14,6.72,6.72,0,0,1-6.27-3.86,9.45,9.45,0,0,1-.91-4.24,12.44,12.44,0,0,1,.06-1.34,11.16,11.16,0,0,1,1.81-5.27,10.72,10.72,0,0,1,3.92-3.65,11.35,11.35,0,0,1,5.41-1.31,9,9,0,0,1,6,2,6.69,6.69,0,0,1,2.31,5.42,8.94,8.94,0,0,1-.11,1.37l-.44,3.2a7.56,7.56,0,0,0-.07.82,1.89,1.89,0,0,0,.39,1.36,1.65,1.65,0,0,0,1.22.39,3.18,3.18,0,0,0,2.08-.8,5.6,5.6,0,0,0,1.6-2.43,11.14,11.14,0,0,0,.62-3.92,11.54,11.54,0,0,0-1.53-6,10.08,10.08,0,0,0-4.52-3.92,16.85,16.85,0,0,0-7.25-1.41,17.46,17.46,0,0,0-8.75,2.06A13.65,13.65,0,0,0,283,94.16a16.63,16.63,0,0,0-1.88,7.92q0,5.88,3.57,9.21t10.65,3.28l-1.1,4.71a23.52,23.52,0,0,1-10.28-2.17,14.51,14.51,0,0,1-6.37-5.89,18.48,18.48,0,0,1-2.17-9.16,19.18,19.18,0,0,1,3.08-10.84,20,20,0,0,1,8.28-7.08,26.43,26.43,0,0,1,11.42-2.45A23.46,23.46,0,0,1,307.88,83.54Zm-9.37,13a3.8,3.8,0,0,0-2.61-1,4.29,4.29,0,0,0-2.2.61A4.6,4.6,0,0,0,292,98.06a6.62,6.62,0,0,0-.64,3.1,3.68,3.68,0,0,0,1,2.85,3.56,3.56,0,0,0,2.54,1,4.35,4.35,0,0,0,2.22-.6,4.6,4.6,0,0,0,1.71-1.87,6.76,6.76,0,0,0,.67-3.16A3.62,3.62,0,0,0,298.51,96.57Z"/><path class="cls-9" d="M330.58,91.49a6.1,6.1,0,0,1,2.34,2.71V90.74h5.88v19.05a10.88,10.88,0,0,1-1,4.83,7.81,7.81,0,0,1-3.15,3.41,10.21,10.21,0,0,1-5.29,1.28,10.91,10.91,0,0,1-6.92-2,8.31,8.31,0,0,1-3.11-5.55h5.8a3,3,0,0,0,1.25,1.82,4.64,4.64,0,0,0,2.56.65,4.19,4.19,0,0,0,2.95-1,4.45,4.45,0,0,0,1.12-3.36v-3.37a6,6,0,0,1-2.34,2.72,7,7,0,0,1-3.78,1,7.82,7.82,0,0,1-4.23-1.18,8.11,8.11,0,0,1-2.95-3.43,13.1,13.1,0,0,1,0-10.45,8,8,0,0,1,2.95-3.4,7.76,7.76,0,0,1,4.19-1.17A7,7,0,0,1,330.58,91.49Zm-4.9,5.4a5.66,5.66,0,0,0,0,6.87,3.93,3.93,0,0,0,3,1.23,4,4,0,0,0,3-1.27,5.49,5.49,0,0,0,0-6.87,4,4,0,0,0-3-1.26,3.92,3.92,0,0,0-3,1.3Z"/><path class="cls-9" d="M373.19,92.71a8.48,8.48,0,0,1,2,6.06V109.9h-5.83V99.46a3.94,3.94,0,0,0-1-2.84,3.55,3.55,0,0,0-2.66-1A3.63,3.63,0,0,0,363,96.72a4.26,4.26,0,0,0-1,3v10.17h-5.89V99.46a3.94,3.94,0,0,0-1-2.84,3.49,3.49,0,0,0-2.64-1,3.68,3.68,0,0,0-2.78,1.07,4.16,4.16,0,0,0-1,3.05v10.17h-5.89V90.74h5.89V94A5.68,5.68,0,0,1,351,91.46a7.09,7.09,0,0,1,3.65-1,7.47,7.47,0,0,1,3.92,1,6.53,6.53,0,0,1,2.55,3,7.62,7.62,0,0,1,2.72-2.86,7.84,7.84,0,0,1,9.39,1.12Z"/><path class="cls-9" d="M390.2,91.49a6.15,6.15,0,0,1,2.36,2.71V90.74h5.84V109.9h-5.84v-3.48a6,6,0,0,1-2.33,2.72,7,7,0,0,1-3.78,1,7.83,7.83,0,0,1-4.24-1.18,8,8,0,0,1-2.94-3.43,13.1,13.1,0,0,1,0-10.45,8,8,0,0,1,2.94-3.4,7.75,7.75,0,0,1,4.24-1.19A7,7,0,0,1,390.2,91.49Zm-4.91,5.4a5.69,5.69,0,0,0,0,6.87,3.93,3.93,0,0,0,3,1.23,4,4,0,0,0,3-1.27,5.46,5.46,0,0,0,0-6.87,4,4,0,0,0-3-1.26,3.93,3.93,0,0,0-3.05,1.3Z"/><path class="cls-9" d="M402.83,83.13a4.16,4.16,0,0,1,5.09,0,3,3,0,0,1,.24,4.16l-.24.24a4.16,4.16,0,0,1-5.09,0,3,3,0,0,1-.24-4.16Zm5.43,7.61V109.9h-5.89V90.74Z"/><path class="cls-9" d="M418.22,84.49V109.9h-5.89V84.49Z"/><path class="cls-9" d="M427.31,104v5.89h-6.07V104Z"/><path class="cls-9" d="M445.24,92.54a9.09,9.09,0,0,1,3.16,5.61h-6.21a3.17,3.17,0,0,0-3.3-2.61,3.13,3.13,0,0,0-2.54,1.22,6.88,6.88,0,0,0,0,7.11,3.13,3.13,0,0,0,2.54,1.22,3.17,3.17,0,0,0,3.3-2.61h6.21a9.06,9.06,0,0,1-3.16,5.61,9.44,9.44,0,0,1-6.21,2,10.53,10.53,0,0,1-5-1.18,8.53,8.53,0,0,1-3.41-3.43,10.6,10.6,0,0,1-1.24-5.21,10.86,10.86,0,0,1,1.22-5.24,8.36,8.36,0,0,1,3.42-3.4,10.44,10.44,0,0,1,5-1.19A9.49,9.49,0,0,1,445.24,92.54Z"/><path class="cls-9" d="M465.52,91.68a8.65,8.65,0,0,1,3.53,3.41,11.17,11.17,0,0,1,0,10.45,8.7,8.7,0,0,1-3.53,3.43,11.61,11.61,0,0,1-10.22,0,8.84,8.84,0,0,1-3.56-3.43,11.26,11.26,0,0,1,0-10.44,8.77,8.77,0,0,1,3.57-3.42,11.54,11.54,0,0,1,10.22,0Zm-7.94,5.12a5.92,5.92,0,0,0,0,7,3.77,3.77,0,0,0,2.84,1.21,3.7,3.7,0,0,0,2.81-1.21,4.87,4.87,0,0,0,1.14-3.49,5,5,0,0,0-1.17-3.52,3.66,3.66,0,0,0-2.81-1.22A3.75,3.75,0,0,0,457.58,96.8Z"/><path class="cls-9" d="M503.79,92.71a8.53,8.53,0,0,1,2,6.06V109.9H500V99.46a3.94,3.94,0,0,0-1-2.84,3.55,3.55,0,0,0-2.66-1,3.64,3.64,0,0,0-2.72,1.07,4.26,4.26,0,0,0-1,3v10.17h-5.89V99.46a3.94,3.94,0,0,0-1-2.84,3.53,3.53,0,0,0-2.65-1,3.71,3.71,0,0,0-2.82,1.07,4.25,4.25,0,0,0-1,3.05v10.17h-5.88V90.74h5.88V94a5.79,5.79,0,0,1,2.32-2.53,7.12,7.12,0,0,1,3.66-1,7.33,7.33,0,0,1,3.88,1,6.4,6.4,0,0,1,2.54,3,7.64,7.64,0,0,1,12.12-1.74Z"/><path class="cls-9" d="M522.68,85.74a6.71,6.71,0,0,1,2.16,5.38,6.47,6.47,0,0,1-2.11,5.11,8.55,8.55,0,0,1-5.65,2v3h-5.53V94.38h2.3a8.62,8.62,0,0,0,3.85-.71,2.6,2.6,0,0,0,1.37-2.52,2.44,2.44,0,0,0-.65-1.82,2.32,2.32,0,0,0-1.75-.65,2.57,2.57,0,0,0-2,.73,2.6,2.6,0,0,0-.69,1.88h-5.54a7.06,7.06,0,0,1,.88-3.76,6.56,6.56,0,0,1,2.91-2.68,10,10,0,0,1,4.63-1A8.6,8.6,0,0,1,522.68,85.74ZM517.39,104v5.89h-6.11V104Z"/><path class="cls-9" d="M434.41,206.28l-8.22,15.86V230h-5.76v-7.89l-8.22-15.86h6.52l4.56,9.69,4.57-9.69Z"/><path class="cls-9" d="M454.23,221.7h-13a4.31,4.31,0,0,0,1.07,3.05,3.47,3.47,0,0,0,2.49.95,3.34,3.34,0,0,0,2.11-.63,3,3,0,0,0,1.11-1.65h6.07a7.64,7.64,0,0,1-1.61,3.54,8.47,8.47,0,0,1-3.16,2.46,9.9,9.9,0,0,1-4.26.89,10.09,10.09,0,0,1-4.88-1.16,8.31,8.31,0,0,1-3.35-3.35,11.42,11.42,0,0,1,0-10.22,8.18,8.18,0,0,1,3.34-3.33,10.2,10.2,0,0,1,4.9-1.16,10.09,10.09,0,0,1,4.91,1.15,8,8,0,0,1,3.27,3.21,9.37,9.37,0,0,1,1.16,4.75A7.63,7.63,0,0,1,454.23,221.7Zm-6.6-5.18a3.71,3.71,0,0,0-2.54-1,3.78,3.78,0,0,0-2.62,1,4,4,0,0,0-1.18,2.76h7.33A3.49,3.49,0,0,0,447.63,216.52Z"/><path class="cls-9" d="M468.23,212a5.82,5.82,0,0,1,2.28,2.65v-3.39h5.71V230h-5.68v-3.39a5.82,5.82,0,0,1-2.28,2.65,6.7,6.7,0,0,1-3.7,1,7.58,7.58,0,0,1-4.14-1.16,7.94,7.94,0,0,1-2.88-3.35,12.87,12.87,0,0,1,0-10.22,8.07,8.07,0,0,1,2.88-3.33,7.67,7.67,0,0,1,4.14-1.16A6.76,6.76,0,0,1,468.23,212Zm-4.8,5.28a5.58,5.58,0,0,0,0,6.72,4.21,4.21,0,0,0,5.95,0,5.39,5.39,0,0,0,0-6.67,3.88,3.88,0,0,0-3-1.23,3.84,3.84,0,0,0-3,1.18Z"/><path class="cls-9" d="M497.2,213.24a8.66,8.66,0,0,1,1.92,5.91V230h-5.76V219.82a4.11,4.11,0,0,0-1-2.93,3.41,3.41,0,0,0-2.64-1.06,3.56,3.56,0,0,0-2.76,1.1,4.46,4.46,0,0,0-1,3.16V230h-5.76V205.18H486v9.54a6.09,6.09,0,0,1,2.4-2.65,7,7,0,0,1,3.74-1A6.51,6.51,0,0,1,497.2,213.24Z"/><path class="cls-9" d="M507.83,224.28V230h-5.95v-5.76Z"/></svg>