<svg id="Layer_1" data-name="Layer 1" xmlns="http://www.w3.org/2000/svg" viewBox="0 0 641.9 448.82"><defs><style>.cls-1{fill:#f60;}.cls-2{fill:#f30;}.cls-3{fill:#ffb7b7;}.cls-4{fill:#2f2e41;}.cls-5{fill:#ffb8b8;}.cls-6{fill:#e0720a;}.cls-7{fill:#3f3d56;}.cls-8{fill:#9f616a;}.cls-9{fill:#e6e6e6;}.cls-10{fill:#a0616a;}.cls-11{fill:#e5e5e5;}.cls-12{fill:#fff;}</style></defs><g id="groupPic_0_Layer0_0_FILL" data-name="groupPic 0 Layer0 0 FILL"><path class="cls-1" d="M161.6,117.6V92.45q0-6.75-4.55-9a12.73,12.73,0,0,0-5.45-1H10q-10,0-10,10V117.6q0,10,10,10h99.9L130.2,144l-7.85-16.35H151.6a12.73,12.73,0,0,0,5.45-1,7.41,7.41,0,0,0,3.8-4.2,13.47,13.47,0,0,0,.75-4.75M603.3,69.5q0-10-10-10H261.9q-10,0-10,10v31.05q0,10,10,10h33.85l8.5,21.6,7.2-21.6H593.3q10,0,10-10Z"/><path class="cls-2" d="M626.2,10q0-10-10-10H36.15q-10,0-10,10V39.75a11.1,11.1,0,0,0,1.8,6.7q2.46,3.3,8.2,3.3H186.5l43.15,70-24.2-70H616.2a13.71,13.71,0,0,0,4.45-.65q5.55-1.91,5.55-9.35V10m15.7,148.15V130.4c0-3.72-1-6.41-3.15-8.05a10.7,10.7,0,0,0-6.85-2H395.4a10.9,10.9,0,0,0-6.9,2c-2.07,1.64-3.1,4.33-3.1,8.05v27.75q0,5.7,3.25,8.15a11,11,0,0,0,6.75,1.85h20.75l-21.6,18.35,54.3-18.35h183q10.06,0,10-10Z"/></g><g id="groupPic_0_Layer0_7_FILL" data-name="groupPic 0 Layer0 7 FILL"><path class="cls-3" d="M285.67,410.48h9.49l4.54-36.63h-14Z"/></g><g id="groupPic_0_Layer0_8_FILL" data-name="groupPic 0 Layer0 8 FILL"><path class="cls-4" d="M283.25,407.35v12.33h30.6v-.39A11.93,11.93,0,0,0,302,407.35Z"/></g><g id="groupPic_0_Layer0_9_FILL" data-name="groupPic 0 Layer0 9 FILL"><path class="cls-3" d="M248.25,373.85h-14v36.63h9.49Z"/></g><g id="groupPic_0_Layer0_10_FILL" data-name="groupPic 0 Layer0 10 FILL"><path class="cls-4" d="M259,410.84a11.48,11.48,0,0,0-8.41-3.49H231.81v12.33h30.6v-.39A11.53,11.53,0,0,0,259,410.84Z"/></g><g id="groupPic_0_Layer0_11_FILL" data-name="groupPic 0 Layer0 11 FILL"><path class="cls-4" d="M289.75,244.44H230.38v96.73l2.44,62.43H253l6.77-117.5,13.47,48.38,8.55,67.94,24.5-1.23Z"/></g><g id="groupPic_0_Layer0_12_FILL" data-name="groupPic 0 Layer0 12 FILL"><path class="cls-5" d="M264.24,132.46a14.7,14.7,0,1,0,4.3,10.37A14.07,14.07,0,0,0,264.24,132.46Z"/></g><g id="groupPic_0_Layer0_13_FILL" data-name="groupPic 0 Layer0 13 FILL"><path class="cls-6" d="M247.76,161.36l-3.91,4.14-3.69,82.6,43.49-1.24-10.41-72.22-13.86-13.31Z"/></g><g id="groupPic_0_Layer0_14_FILL" data-name="groupPic 0 Layer0 14 FILL"><path class="cls-7" d="M244.08,165l-3.3,5.35L223.66,180.8q1.2,113.85,1.2,118.12,0,2.77,11,3.07a96,96,0,0,0,14.68-.62q2.94-.36,2.54-30-1-35.2-.68-46.52.36-14.16-3.46-32.68c-.8-3.88-1.7-7.65-2.67-11.32L245,176.47Z"/></g><g id="groupPic_0_Layer0_15_FILL" data-name="groupPic 0 Layer0 15 FILL"><path class="cls-7" d="M299,292.1c-1-2.27-1.81-4.32-2.48-6.17a72.27,72.27,0,0,1-3-10.89q-2.31-11.49-3.23-55.26-.45-21.87-.45-41.47l-18.37-6.75L263.15,165c-.28,0-.22,2.64.2,7.9a158.47,158.47,0,0,1,.16,22.54q-.84,13.8,7.6,35.65a121.52,121.52,0,0,0,7.47,16.18q4,7.13,7,9.4,5,3.81,3.92,20.65a122.15,122.15,0,0,1-2.09,16.05v.45a2.19,2.19,0,0,0,.72,1c1.24.91,3.64,1.25,7.21,1,2.13-.15,3.41-.47,3.85-1S299.49,293.55,299,292.1Z"/></g><g id="groupPic_0_Layer0_16_FILL" data-name="groupPic 0 Layer0 16 FILL"><path class="cls-4" d="M268.28,139.89a17.66,17.66,0,0,1,.16,6.36c.46-.5,1.17-2.82,2.13-7a17.56,17.56,0,0,0-.36-8.58,21.37,21.37,0,0,0-1.47-3.88c-.41-2.74-1.57-4.3-3.46-4.69a4.31,4.31,0,0,0-1.89,0l-.82.22a3,3,0,0,1,2,1.9,2.22,2.22,0,0,1,.07,1.17,4.51,4.51,0,0,0-4.44-2.19l-2.87.59a10.74,10.74,0,0,0-9.56-.94,15.25,15.25,0,0,0-3.16,1.5l-1.21.81q-5.22,1.17-4.86,5a7.32,7.32,0,0,0,1.4,3.56q-5.25,2.64-3.1,8.45a15.77,15.77,0,0,0,3.17,5.25,7,7,0,0,0,.58-2,33.62,33.62,0,0,0,.36-7.5c-.11-3,2.06-4.48,6.49-4.44.77,0,2.95.14,6.56.42a48.78,48.78,0,0,0,7.15.13Q267,133.6,268.28,139.89Z"/></g><g id="groupPic_0_Layer0_17_FILL" data-name="groupPic 0 Layer0 17 FILL"><path class="cls-3" d="M224.63,281.31a6,6,0,0,0-.84-.66l2.64-13.93-8.06-3.62-3.46,19.7a6.24,6.24,0,0,0,2.35,8.49,6.41,6.41,0,0,0,4,.75,6.3,6.3,0,0,0,5.32-6.37A6,6,0,0,0,224.63,281.31Z"/></g><g id="groupPic_0_Layer0_18_FILL" data-name="groupPic 0 Layer0 18 FILL"><path class="cls-7" d="M226.72,180.8l-1.63-.88a42,42,0,0,0-4.3,2c-2.83,1.52-4.12,2.79-3.89,3.81q.19.72-2,45.38-2.1,44-1.06,45.79t9,1.47a71.25,71.25,0,0,0,7.57-.85Z"/></g><g id="groupPic_0_Layer0_19_FILL" data-name="groupPic 0 Layer0 19 FILL"><path class="cls-3" d="M299.3,256.64l-7.47,4.77,4.54,13.4a4.68,4.68,0,0,0-.75.79,6.24,6.24,0,1,0,11.13,4,6.18,6.18,0,0,0-1.28-3.9Z"/></g><g id="groupPic_0_Layer0_20_FILL" data-name="groupPic 0 Layer0 20 FILL"><path class="cls-7" d="M297,272.4q7.8-.61,8.68-2.67t-7.41-45.25Q290,180.55,290,179.82c.11-1-1.33-2.12-4.34-3.23l-4.53-1.37-1.5,1.11,9.75,96.3Z"/></g><g id="groupPic_0_Layer0_21_FILL" data-name="groupPic 0 Layer0 21 FILL"><path class="cls-3" d="M341.94,197.86l-9,5.81,1.24,36.76,14.32,38.1a4.85,4.85,0,0,0-.33,3.82,5,5,0,0,0,9.53-3,4.74,4.74,0,0,0-2.45-2.93h-.06L346,231.23Z"/></g><g id="groupPic_0_Layer0_22_FILL" data-name="groupPic 0 Layer0 22 FILL"><path class="cls-3" d="M282.57,204.71l-11.87-4.43.84,33.59-2.54,46h-.07a5,5,0,1,0,5.49,8.36,4.56,4.56,0,0,0,.42-.31A5,5,0,0,0,276,281h0l8.64-39.76Z"/></g><g id="groupPic_0_Layer0_23_FILL" data-name="groupPic 0 Layer0 23 FILL"><path class="cls-3" d="M302.79,390.33h-8.93v23.38h6Z"/></g><g id="groupPic_0_Layer0_24_FILL" data-name="groupPic 0 Layer0 24 FILL"><path class="cls-4" d="M304.23,411.72H292.29v7.87h19.54v-.26A7.65,7.65,0,0,0,304.23,411.72Z"/></g><g id="groupPic_0_Layer0_25_FILL" data-name="groupPic 0 Layer0 25 FILL"><path class="cls-3" d="M322.79,412l6.43-22.64L320.38,388l-3.59,23Z"/></g><g id="groupPic_0_Layer0_26_FILL" data-name="groupPic 0 Layer0 26 FILL"><path class="cls-4" d="M333.72,419.36a7.35,7.35,0,0,0-1.37-5.68,7.46,7.46,0,0,0-5-3l-11.78-1.8-1.2,7.74,19.31,3Z"/></g><g id="groupPic_0_Layer0_27_FILL" data-name="groupPic 0 Layer0 27 FILL"><path class="cls-4" d="M348.27,337.1V337L331.6,272.5l-4.7-33.82-39.6-5.35L274,259.92a44.7,44.7,0,0,0-3.95,28L292,406.69l12.17-.91-1.6-112,22.71,51.54-12.4,60.54,14-.94Z"/></g><g id="groupPic_0_Layer0_28_FILL" data-name="groupPic 0 Layer0 28 FILL"><path class="cls-6" d="M324.23,185.4l-5.84-4.6-22.25.39-5.58,3.36-11.38,2,3.55,21.92,3,27h.06l1.89,1.47a26.52,26.52,0,0,0,5,2.77,22.33,22.33,0,0,0,16.9.46q8.22-3,13.89-.59a8.94,8.94,0,0,1,4.08,3.1l.26.39,6.85-36.63-.88-20Z"/></g><g id="groupPic_0_Layer0_29_FILL" data-name="groupPic 0 Layer0 29 FILL"><path class="cls-6" d="M333.88,186.31h-.13L331,191.24v17.09l12.07-5.67v-.13q.46-9.53-3.65-13.67A7.68,7.68,0,0,0,333.88,186.31Z"/></g><g id="groupPic_0_Layer0_30_FILL" data-name="groupPic 0 Layer0 30 FILL"><path class="cls-6" d="M279.47,186.44h-.1a8.42,8.42,0,0,0-5.64,3.07q-4.25,4.8-3.56,15.17v.16l13.8,1.63-.78-16.63Z"/></g><g id="groupPic_0_Layer0_31_FILL" data-name="groupPic 0 Layer0 31 FILL"><path class="cls-4" d="M326.64,171.1V157.9a20.93,20.93,0,1,0-41.84-1.2c0,.12,0,.24,0,.36v14a2.77,2.77,0,0,0,.81,2,2.69,2.69,0,0,0,2,.82h36.25a2.77,2.77,0,0,0,2.8-2.74v0h0Z"/></g><g id="groupPic_0_Layer0_32_FILL" data-name="groupPic 0 Layer0 32 FILL"><path class="cls-3" d="M317.41,147.59a15.33,15.33,0,1,0,4.5,10.83A14.75,14.75,0,0,0,317.41,147.59Z"/></g><g id="groupPic_0_Layer0_33_FILL" data-name="groupPic 0 Layer0 33 FILL"><path class="cls-4" d="M320.87,144.46a1.51,1.51,0,0,0-.88-1.21,31.67,31.67,0,0,0-28,0,1.49,1.49,0,0,0-.88,1.28l-1.21,12.69v.13a1.54,1.54,0,0,0,1.52,1.56h3.11a1.44,1.44,0,0,0,1.4-.91l1.34-2.84a.83.83,0,0,1,.72-.52,1.09,1.09,0,0,1,.72.19.91.91,0,0,1,.36.62l.26,2.09a1.57,1.57,0,0,0,1.53,1.37h20.49a1.63,1.63,0,0,0,1.32-1.79Z"/></g><g id="groupPic_0_Layer0_34_FILL" data-name="groupPic 0 Layer0 34 FILL"><path class="cls-8" d="M324.46,267.83a5.45,5.45,0,0,0-2.42,3.59,5.24,5.24,0,0,0,.82,4.21,5.44,5.44,0,0,0,2.93,2.25,5.56,5.56,0,0,0,3.69,0,5.49,5.49,0,0,0,3.2-2.87,5.61,5.61,0,0,0,.22-4.31l-.42-.88,13.15-15-10.28-1.44Z"/></g><g id="groupPic_0_Layer0_35_FILL" data-name="groupPic 0 Layer0 35 FILL"><path class="cls-8" d="M345.33,375.22H331.79l4.38,35.33h9.16Z"/></g><g id="groupPic_0_Layer0_36_FILL" data-name="groupPic 0 Layer0 36 FILL"><path class="cls-4" d="M347.65,419.42V407.58h-18a11.52,11.52,0,0,0-11.52,11.52v.36Z"/></g><g id="groupPic_0_Layer0_37_FILL" data-name="groupPic 0 Layer0 37 FILL"><path class="cls-8" d="M382.81,369.15l-12.91,4,14.61,32.46,8.78-2.71Z"/></g><g id="groupPic_0_Layer0_38_FILL" data-name="groupPic 0 Layer0 38 FILL"><path class="cls-4" d="M394.62,399.33l-17.22,5.35a11.55,11.55,0,0,0-7.57,14.42l.1.32,28.22-8.74Z"/></g><g id="groupPic_0_Layer0_39_FILL" data-name="groupPic 0 Layer0 39 FILL"><path class="cls-9" d="M324.72,263.17l10.63.94,2.94-16.47Z"/></g><g id="groupPic_0_Layer0_40_FILL" data-name="groupPic 0 Layer0 40 FILL"><path class="cls-4" d="M378.51,283.43q3.56-13.55-.13-15.76t-24.89-1.34L333,267.67a7.07,7.07,0,0,0-2.44,2.51Q328,274,327.68,280.62t.69,23.13q.53,8.25,1.11,15.17l-.88,7.57a57.26,57.26,0,0,0,.88,16q1.17,5.55.06,30.14-1,21.74.53,21.73c1,0,4.41.21,10.3.65,5.44.28,8.29.07,8.55-.65q.58-1.77,1.18-28.28a41,41,0,0,0,1.76-7.8q1.13-8.55-1.57-13.64l9.36,16.77q10.88,19.83,17.52,33.53.85,1.71,4.08,1.86a18.2,18.2,0,0,0,6.46-1,15.06,15.06,0,0,0,5.44-2.9c1.44-1.33,1.81-2.62,1.11-3.85q-1.81-3.3-6.1-16.7l-3.91-12.76a71.28,71.28,0,0,0-3.82-9.78q-5-10.77-10.89-15.53l4.69-37.71A110.7,110.7,0,0,0,378.51,283.43Z"/></g><g id="groupPic_0_Layer0_41_FILL" data-name="groupPic 0 Layer0 41 FILL"><path class="cls-10" d="M361.51,145.47A15.38,15.38,0,1,0,366,156.3,14.82,14.82,0,0,0,361.51,145.47Z"/></g><g id="groupPic_0_Layer0_42_FILL" data-name="groupPic 0 Layer0 42 FILL"><path class="cls-11" d="M367.74,172.81l-19,11.19a24.45,24.45,0,0,0-4,2.93,21.24,21.24,0,0,0-6,8.26,30.43,30.43,0,0,0-1.57,12.23q.33,6,1.57,8.38,1.47,3,.39,10a53.18,53.18,0,0,1-1.4,6.49l-2.94,27.11a26.35,26.35,0,0,0-4.27,5.15q-3.22,5.32,1.92,6,4.55.65,15.7.22,12.36-.48,16.11-.22a96.25,96.25,0,0,0,12.36.35c3.66-.41,4.84-1.9,3.56-4.46a64.22,64.22,0,0,1-3.92-8.71q-1.37-5.42.95-13.12,1.83-6,2.35-27.11.36-13.92.13-31.12a11.31,11.31,0,0,0-1.57-5.7,11.53,11.53,0,0,0-4.14-4.21Z"/></g><g id="groupPic_svg_a51d1085_6888_40f4_b041_cee40a1fdfd8_ab5b7163_34aa_4542_8f5b_346ef47d8115_0_Layer0_0_FILL" data-name="groupPic svg a51d1085 6888 40f4 b041 cee40a1fdfd8 ab5b7163 34aa 4542 8f5b 346ef47d8115 0 Layer0 0 FILL"><path d="M359.22,191.3l-.59,37.12L341,260.82l2.9,1.1L361,227.25Z"/></g><g id="groupPic_svg_a51d1085_6888_40f4_b041_cee40a1fdfd8_a0747de6_ab5b_4f6b_918c_fa029658d911_0_Layer0_0_FILL" data-name="groupPic svg a51d1085 6888 40f4 b041 cee40a1fdfd8 a0747de6 ab5b 4f6b 918c fa029658d911 0 Layer0 0 FILL"><path d="M378.63,234.91V230.8l-20,33Z"/></g><g id="groupPic_0_Layer0_45_FILL" data-name="groupPic 0 Layer0 45 FILL"><path class="cls-4" d="M357.53,136.79A9.76,9.76,0,0,0,351,133.1a8.09,8.09,0,0,0-2.25.13l-.89.23,2.09,2.28a15.35,15.35,0,0,0-9.1,2.48l-3.57,2.88,2.51,1q-4.14,2.39-4.8,9a21.93,21.93,0,0,0,.2,6.16l1.4,2.55,1.5-2.12a9.77,9.77,0,0,0,1.7-4.21c.11-1.18,1.18-2.55,3.23-4.11a21.44,21.44,0,0,1,3-2l-2.09,2.8,5.32-.75-1.37,2.29,8.51-2.81.69,2.81,1.37-1.8a4.4,4.4,0,0,0,1.27,2.48,13.41,13.41,0,0,0,1.27,1.34v-2.54q0,.62,2.35,4.53c.78,1.3,1.57,2.57,2.35,3.78l-.1-2a13.73,13.73,0,0,0,.41-6.4l4,.45-3.92-2.45,1.14-2.51h-2.74a28.91,28.91,0,0,0-3.23-5.22C360.42,140.24,359.18,138.72,357.53,136.79Z"/></g><g id="groupPic_0_Layer0_46_FILL" data-name="groupPic 0 Layer0 46 FILL"><path class="cls-8" d="M349.7,279.51a5.44,5.44,0,0,0,2.65-3.39,5.55,5.55,0,0,0-.56-4.27l-.55-.79L361.51,254l-10.34.42L343,270.54a5.39,5.39,0,0,0-1.73,3.95,5.47,5.47,0,0,0,1.57,4,5.4,5.4,0,0,0,3.26,1.67A5.51,5.51,0,0,0,349.7,279.51Z"/></g><g id="groupPic_0_Layer0_47_FILL" data-name="groupPic 0 Layer0 47 FILL"><path class="cls-11" d="M377.46,179.59l-4.4.88q-8.83-.71-11.19,6.63a16.3,16.3,0,0,0-.59,7.5l2.94,31.22q-5,8.42-10.15,17.38-10.31,18-11.07,20.9c-.51,1.93,1.31,3.32,5.44,4.15a34.51,34.51,0,0,0,6.33.58l1.34-.81a1.46,1.46,0,0,0,.5-2l-.08-.12q-.64-1,.3-1.14a3.8,3.8,0,0,0,2.09-.66q1.17-1.17,5.28-6.45l2.9-4.9q3.56-6.13,6.76-12.26Q384,220.93,386.6,208.76t-3-21.86a27.84,27.84,0,0,0-4.11-5.48Z"/></g><g id="groupPic_0_Layer0_49_FILL" data-name="groupPic 0 Layer0 49 FILL"><path class="cls-7" d="M122.11,153.1a3.57,3.57,0,0,0-3.56-3.55H95.33v-.23H91v.23H84.79a3.57,3.57,0,0,0-3.56,3.55v13a3.5,3.5,0,0,0,3.41,3.59H118.5a3.5,3.5,0,0,0,3.5-3.5v-.09Z"/></g><g id="groupPic_0_Layer0_50_FILL" data-name="groupPic 0 Layer0 50 FILL"><path class="cls-4" d="M175,165.34q-6.47-15.24-21.74-15.24T131,165.34q-6.5,14-4.86,38.07.84,12.69,8.45,15.36a26.31,26.31,0,0,0,8.32,1.14q3.12,0,10.37-.16,3.75,0,10.57.16a29.27,29.27,0,0,0,8.68-1.11q8-2.73,7.89-15.39Q180.21,177.76,175,165.34Z"/></g><g id="groupPic_0_Layer0_51_FILL" data-name="groupPic 0 Layer0 51 FILL"><path class="cls-10" d="M98.72,168.34a7.28,7.28,0,0,0-.39-5.71,7.47,7.47,0,0,0-13.08-.75,7.28,7.28,0,0,0-1,5.64l-3,24,11.13,8.15,1.35-26.57a6.42,6.42,0,0,0,1.2-.45A7.3,7.3,0,0,0,98.72,168.34Z"/></g><g id="groupPic_0_Layer0_52_FILL" data-name="groupPic 0 Layer0 52 FILL"><path class="cls-10" d="M185.2,305.9a7.51,7.51,0,0,0,9.49,9.63,7.28,7.28,0,0,0,3.88-3,7.11,7.11,0,0,0,1.11-5.61,7.3,7.3,0,0,0-3.23-4.73,10.77,10.77,0,0,0-1.14-.65l2-26.49-12,6.72Z"/></g><g id="groupPic_0_Layer0_53_FILL" data-name="groupPic 0 Layer0 53 FILL"><path class="cls-10" d="M156.49,404.87H143.05V440h9.13Z"/></g><g id="groupPic_0_Layer0_54_FILL" data-name="groupPic 0 Layer0 54 FILL"><path class="cls-4" d="M158.68,437h-18v11.78h29.4v-.36A11.47,11.47,0,0,0,158.63,437Z"/></g><g id="groupPic_0_Layer0_55_FILL" data-name="groupPic 0 Layer0 55 FILL"><path class="cls-10" d="M201,440h9.13l4.34-35.17H201Z"/></g><g id="groupPic_0_Layer0_56_FILL" data-name="groupPic 0 Layer0 56 FILL"><path class="cls-4" d="M224.73,440.4a11,11,0,0,0-8.09-3.36H198.7v11.78h29.39v-.36A11,11,0,0,0,224.73,440.4Z"/></g><g id="groupPic_0_Layer0_57_FILL" data-name="groupPic 0 Layer0 57 FILL"><path class="cls-6" d="M190.84,215.7a9.31,9.31,0,0,0-1.6-4.33,9.75,9.75,0,0,0-3.46-3.14,8.42,8.42,0,0,0-4.5-.84,9,9,0,0,0-4.37,1.53l-.13.1v.16a85.65,85.65,0,0,0,8.55,45.92l.19,40.84.3.07c2.48.52,5.68,1.13,9.62,1.82l.39.1v-.42q1.21-11.68,3.56-37v-.1Q196.62,246.9,190.84,215.7Z"/></g><g id="groupPic_0_Layer0_58_FILL" data-name="groupPic 0 Layer0 58 FILL"><path class="cls-4" d="M182.81,260.23l-.06-.26-28.94-4.5a6.56,6.56,0,0,0-4.92,1.53,7.94,7.94,0,0,0-2.61,2.91q-10.6,24.1-13.11,37.22a140.28,140.28,0,0,0-2.06,17.45q-.45,6.66-1,24.3-.69,20.49-1.31,34.12-1.07,23.69-2.83,49.65V423h.4q14.34.86,21.46,1.24,12,.63,21.53.85h.39v-.39q-1.2-19.38-2.35-35.56-1.64-23.83-2.25-35.52-1.08-19.71-1.5-39.37,3,15.56,6.85,31.83,2.25,9.53,7,28.58,4,16,6.07,24.63,3.47,14.41,6.3,27.82l.06.36.33-.06q7.89-1.19,18.63-3.39,11.64-2.38,19.86-3.56l.39-.07-.14-.3q-3.72-21.82-15.53-61.63-6.66-22.53-20.22-64.36-5.13-15.69-7-21.85Q183.39,263,182.81,260.23Z"/></g><g id="groupPic_0_Layer0_59_FILL" data-name="groupPic 0 Layer0 59 FILL"><path class="cls-6" d="M126,232.41l.16.19q4.8,6.19,16.18,20a6.1,6.1,0,0,0-1.47,5.09,6.54,6.54,0,0,0,.95,2.77,6,6,0,0,0,2.12,2,27.6,27.6,0,0,0,9.56,5.9,31.77,31.77,0,0,0,11.25,2,31,31,0,0,0,17.74-5.26l.13-.07v-.16a46.88,46.88,0,0,0,1.11-7.83q.17-2.61.29-8.65a150.89,150.89,0,0,1-.88-38.39v-.26l-.23-.1a26.62,26.62,0,0,0-15.66-3.2L164,199h-.26q-5.75.34-20.19.71h-.36l-.46,10.61a3.81,3.81,0,0,0-3.16-.69,3.43,3.43,0,0,0-1.76.69,3.39,3.39,0,0,0-1.14,1.5q-4,7.89-10.51,20.22Z"/></g><g id="groupPic_0_Layer0_60_FILL" data-name="groupPic 0 Layer0 60 FILL"><path class="cls-6" d="M81,181v.32a77.84,77.84,0,0,0,.29,19.94,57.14,57.14,0,0,0,5.87,16.93l.07.09.07.07a78.25,78.25,0,0,0,15.7,7.21q5,1.56,16.74,3.91l.68.13q10.13,5.61,15.43,8.29l.46.2.1-.46q2.9-15.8,4-22.28v-.16l-.1-.13a9.94,9.94,0,0,0-3.85-3.1,9.78,9.78,0,0,0-4.86-.85,115.49,115.49,0,0,1-14.64.72q-11,0-15.5-1.31-1-3.17-4.76-15.62-2.55-8.66-4.31-14.13l-.1-.29H92c-.8.06-2.57.14-5.28.23s-4.63.16-5.45.23Z"/></g><g id="groupPic_0_Layer0_61_FILL" data-name="groupPic 0 Layer0 61 FILL"><path class="cls-10" d="M147.78,161.16a18.27,18.27,0,0,0-3.62,33.54,17.75,17.75,0,0,0,13.93,1.5,18.26,18.26,0,0,0-10.31-35Z"/></g><g id="groupPic_0_Layer0_62_FILL" data-name="groupPic 0 Layer0 62 FILL"><path class="cls-4" d="M155.12,158.26H151.4a19.32,19.32,0,0,0-19.31,19.33h7.21l3.2-8.93.61,8.93h3.46l1.86-5.22.36,5.22h25.64a19.32,19.32,0,0,0-19.3-19.34h0Z"/></g><path class="cls-12" d="M29,94.62a11.12,11.12,0,0,1,3.91,6.57H26.7a5.66,5.66,0,0,0-2.11-2.64,5.92,5.92,0,0,0-3.36-1,5.15,5.15,0,0,0-4.15,1.89,8.81,8.81,0,0,0,0,10,5.17,5.17,0,0,0,4.15,1.86,5.92,5.92,0,0,0,3.36-1,5.78,5.78,0,0,0,2.11-2.6h6.19A11.2,11.2,0,0,1,29,114.32a11.71,11.71,0,0,1-7.64,2.44,12,12,0,0,1-6.19-1.55A10.49,10.49,0,0,1,11,110.85a14.71,14.71,0,0,1,0-12.79,10.4,10.4,0,0,1,4.12-4.37,12,12,0,0,1,6.19-1.55A11.83,11.83,0,0,1,29,94.62Z"/><path class="cls-12" d="M53.49,99.51a8.76,8.76,0,0,1,2,6v11.08H49.59v-10.4a4.21,4.21,0,0,0-1-3,3.49,3.49,0,0,0-2.69-1.07,3.6,3.6,0,0,0-2.82,1.12,4.58,4.58,0,0,0-1.05,3.21v10.13H36.19V91.3h5.86V101a6.33,6.33,0,0,1,2.45-2.7,7.21,7.21,0,0,1,3.82-1A6.6,6.6,0,0,1,53.49,99.51Z"/><path class="cls-12" d="M77.24,108.13H64a4.38,4.38,0,0,0,1.09,3.09,3.55,3.55,0,0,0,2.53,1,3.49,3.49,0,0,0,2.15-.64,3.09,3.09,0,0,0,1.14-1.69H77.1a7.79,7.79,0,0,1-1.64,3.61,8.72,8.72,0,0,1-3.21,2.5,10.19,10.19,0,0,1-4.34.91,10.41,10.41,0,0,1-5-1.18,8.48,8.48,0,0,1-3.41-3.41,11.69,11.69,0,0,1,0-10.41,8.35,8.35,0,0,1,3.4-3.39,10.46,10.46,0,0,1,5-1.18,10.22,10.22,0,0,1,5,1.17,8.14,8.14,0,0,1,3.32,3.26,9.73,9.73,0,0,1,1.19,4.89A8.31,8.31,0,0,1,77.24,108.13Zm-6.75-5.29a3.7,3.7,0,0,0-2.58-1,3.81,3.81,0,0,0-2.67,1,4,4,0,0,0-1.2,2.82h7.45A3.48,3.48,0,0,0,70.49,102.84Z"/><path class="cls-12" d="M98.41,108.13H85.17a4.44,4.44,0,0,0,1.1,3.09,3.85,3.85,0,0,0,4.69.34,3.05,3.05,0,0,0,1.11-1.72h6.2a8.07,8.07,0,0,1-1.63,3.64,8.67,8.67,0,0,1-3.22,2.5,10.17,10.17,0,0,1-4.35.91,10.35,10.35,0,0,1-5-1.18,8.52,8.52,0,0,1-3.4-3.41,11.69,11.69,0,0,1,0-10.41,8.35,8.35,0,0,1,3.4-3.39,10.45,10.45,0,0,1,5-1.18A10.33,10.33,0,0,1,94,98.45a8.33,8.33,0,0,1,3.38,3.3,9.81,9.81,0,0,1,1.17,4.89A7.48,7.48,0,0,1,98.41,108.13Zm-6.75-5.29a3.78,3.78,0,0,0-2.59-1,3.88,3.88,0,0,0-2.66,1,4,4,0,0,0-1.18,2.82h7.46A3.54,3.54,0,0,0,91.66,102.84Z"/><path class="cls-12" d="M114.37,99.1a7.85,7.85,0,0,1,2.72,4.78h-5.47a3,3,0,0,0-1.08-1.82,3.27,3.27,0,0,0-2.11-.68,2.34,2.34,0,0,0-1.5.43,1.5,1.5,0,0,0-.51,1.22,1.41,1.41,0,0,0,1,1.33,14.17,14.17,0,0,0,2.93.89,28.19,28.19,0,0,1,3.58,1,5.79,5.79,0,0,1,2.44,1.73,4.75,4.75,0,0,1,1,3.21,4.92,4.92,0,0,1-.89,2.93,5.8,5.8,0,0,1-2.57,2,10,10,0,0,1-4,.72,10.22,10.22,0,0,1-6.1-1.71,7.2,7.2,0,0,1-2.84-4.88h5.64a2.57,2.57,0,0,0,1.05,1.88,3.94,3.94,0,0,0,2.33.65,2.26,2.26,0,0,0,1.51-.46,1.59,1.59,0,0,0,.52-1.21,1.47,1.47,0,0,0-1-1.43,16.38,16.38,0,0,0-3.07-.9,25.14,25.14,0,0,1-3.49-1,5.65,5.65,0,0,1-2.35-1.66,4.6,4.6,0,0,1-1-3.13,5.12,5.12,0,0,1,2-4.16,8.49,8.49,0,0,1,5.5-1.59A8.72,8.72,0,0,1,114.37,99.1Z"/><path class="cls-12" d="M138.57,108.13H125.3a4.43,4.43,0,0,0,1.09,3.09,3.9,3.9,0,0,0,4.77.31,3,3,0,0,0,1.12-1.68h6.2a8.21,8.21,0,0,1-1.64,3.6,8.77,8.77,0,0,1-3.22,2.5,10.17,10.17,0,0,1-4.35.91,10.35,10.35,0,0,1-5-1.18,8.46,8.46,0,0,1-3.4-3.41,11.76,11.76,0,0,1,0-10.41,8.35,8.35,0,0,1,3.4-3.39,10.47,10.47,0,0,1,4.91-1.19,10.22,10.22,0,0,1,5,1.17,8.15,8.15,0,0,1,3.34,3.27,9.65,9.65,0,0,1,1.17,4.88A8.8,8.8,0,0,1,138.57,108.13Zm-6.76-5.29a3.78,3.78,0,0,0-2.58-1,3.89,3.89,0,0,0-2.67,1,4,4,0,0,0-1.19,2.8h7.45A3.49,3.49,0,0,0,131.81,102.84Z"/><path class="cls-12" d="M149.78,91.23,149.06,108h-4.95l-.73-16.72Zm-.13,19.54v5.87h-6.09v-5.87Z"/><path class="cls-12" d="M62.58,34.7H56.74L46.9,19.51V34.7H41V10h5.9l9.84,15.29V10h5.9Z"/><path class="cls-12" d="M67.06,7.42a4.07,4.07,0,0,1,5.09,0,3,3,0,0,1,0,4.48,4.07,4.07,0,0,1-5.09,0,3,3,0,0,1-.24-4.24Zm5.48,7.75V34.7H66.63V15.17Z"/><path class="cls-12" d="M91.5,17a9.24,9.24,0,0,1,3.17,5.72H88.44a3.18,3.18,0,0,0-3.3-2.66,3.12,3.12,0,0,0-2.55,1.24,5.63,5.63,0,0,0-1,3.63,5.6,5.6,0,0,0,1,3.62,3.12,3.12,0,0,0,2.55,1.24,3.18,3.18,0,0,0,3.3-2.66h6.23a9.24,9.24,0,0,1-3.17,5.72A9.41,9.41,0,0,1,85.26,35a10.27,10.27,0,0,1-5-1.21,8.56,8.56,0,0,1-3.44-3.49A10.86,10.86,0,0,1,75.59,25a10.87,10.87,0,0,1,1.23-5.34,8.41,8.41,0,0,1,3.42-3.47,10.36,10.36,0,0,1,5-1.26A9.43,9.43,0,0,1,91.5,17Z"/><path class="cls-12" d="M115.81,26H102.49a4.57,4.57,0,0,0,1.1,3.17,3.57,3.57,0,0,0,2.55,1,3.43,3.43,0,0,0,2.16-.66,3.08,3.08,0,0,0,1.14-1.72h6.23A8.13,8.13,0,0,1,114,31.48,8.76,8.76,0,0,1,110.78,34a10.13,10.13,0,0,1-4.37.93,10.27,10.27,0,0,1-5-1.21A8.56,8.56,0,0,1,98,30.23a11,11,0,0,1-1.24-5.31A11.09,11.09,0,0,1,98,19.58a8.43,8.43,0,0,1,3.43-3.47,10.34,10.34,0,0,1,5-1.21,10.15,10.15,0,0,1,5,1.2,8.17,8.17,0,0,1,3.33,3.36A9.93,9.93,0,0,1,116,24.41,8.48,8.48,0,0,1,115.81,26ZM109,20.59a3.71,3.71,0,0,0-2.6-1,3.81,3.81,0,0,0-2.68,1,4.16,4.16,0,0,0-1.21,2.87H110a3.57,3.57,0,0,0-1-2.85Z"/><path class="cls-12" d="M124.11,28.71v6H118v-6Z"/><path class="cls-12" d="M150.57,31.34A6.93,6.93,0,0,1,147.68,34,10.06,10.06,0,0,1,143,35a10.73,10.73,0,0,1-6.74-2,7.39,7.39,0,0,1-2.9-5.67h6.27a3.36,3.36,0,0,0,1,2.2,2.92,2.92,0,0,0,2.15.8,2.47,2.47,0,0,0,1.79-.63,2.42,2.42,0,0,0,.08-3.28,4.74,4.74,0,0,0-1.51-1c-.59-.27-1.41-.6-2.48-1a32.38,32.38,0,0,1-3.76-1.56,6.93,6.93,0,0,1-2.51-2.24,6.45,6.45,0,0,1-1-3.87,6.48,6.48,0,0,1,1.09-3.85,7,7,0,0,1,3.05-2.47A10.83,10.83,0,0,1,142,9.57a9.84,9.84,0,0,1,6.46,2,7.57,7.57,0,0,1,2.7,5.39h-6.37a3.28,3.28,0,0,0-.88-1.94A2.52,2.52,0,0,0,142,14.3a2.44,2.44,0,0,0-1.67.56,2.08,2.08,0,0,0-.64,1.64,2.15,2.15,0,0,0,.57,1.49,4.3,4.3,0,0,0,1.43,1c.58.26,1.4.58,2.48,1a29,29,0,0,1,3.82,1.59,7.31,7.31,0,0,1,2.55,2.3,6.54,6.54,0,0,1,1.06,3.92A6.89,6.89,0,0,1,150.57,31.34Z"/><path class="cls-12" d="M172.89,26H159.57a4.57,4.57,0,0,0,1.1,3.17,3.49,3.49,0,0,0,2.55,1,3.43,3.43,0,0,0,2.16-.66,3,3,0,0,0,1.14-1.72h6.23a8.13,8.13,0,0,1-1.65,3.69A8.77,8.77,0,0,1,167.89,34a10.84,10.84,0,0,1-9.37-.28,8.59,8.59,0,0,1-3.42-3.47,10.86,10.86,0,0,1-1.23-5.31,11,11,0,0,1,1.22-5.34,8.37,8.37,0,0,1,3.43-3.47,11.06,11.06,0,0,1,10,0,8.31,8.31,0,0,1,3.36,3.34,10.14,10.14,0,0,1,1.19,5A8.48,8.48,0,0,1,172.89,26Zm-6.8-5.41a3.7,3.7,0,0,0-2.59-1,3.83,3.83,0,0,0-2.69,1,4.16,4.16,0,0,0-1.21,2.87h7.51a3.61,3.61,0,0,0-1-2.85Z"/><path class="cls-12" d="M193.57,17.2a9.11,9.11,0,0,1,2,6.16V34.7h-5.9V24.06a4.34,4.34,0,0,0-1-3.06,3.47,3.47,0,0,0-2.71-1.1,3.65,3.65,0,0,0-2.83,1.15,4.67,4.67,0,0,0-1.05,3.29V34.7h-5.91V15.17h5.91v3.57A6.27,6.27,0,0,1,184.52,16a7.09,7.09,0,0,1,3.83-1A6.63,6.63,0,0,1,193.57,17.2Z"/><path class="cls-12" d="M210.48,15.94a5.88,5.88,0,0,1,2.32,2.77V8.8h5.9V34.7h-5.9V31.17a5.91,5.91,0,0,1-2.32,2.76,6.73,6.73,0,0,1-3.78,1,7.72,7.72,0,0,1-4.25-1.21,8.27,8.27,0,0,1-2.95-3.49,12,12,0,0,1-1.08-5.31,12.11,12.11,0,0,1,1.08-5.34,8.16,8.16,0,0,1,2.95-3.47,7.72,7.72,0,0,1,4.25-1.21A6.83,6.83,0,0,1,210.48,15.94Zm-4.91,5.5a5,5,0,0,0-1.15,3.5,5,5,0,0,0,1.15,3.5,4.26,4.26,0,0,0,6.09,0A4.94,4.94,0,0,0,212.85,25a4.92,4.92,0,0,0-1.19-3.49,4,4,0,0,0-3-1.28,3.86,3.86,0,0,0-3.07,1.23Z"/><path class="cls-12" d="M230,7.42a4.09,4.09,0,0,1,5.1,0,2.91,2.91,0,0,1,1,2.25,3,3,0,0,1-1,2.23,4.09,4.09,0,0,1-5.1,0,3,3,0,0,1-.24-4.24C229.87,7.58,230,7.5,230,7.42Zm5.48,7.75V34.7h-5.9V15.17Z"/><path class="cls-12" d="M250.46,29.56V34.7H247.8a7.56,7.56,0,0,1-5.25-1.7c-1.24-1.13-1.87-3-1.87-5.62V20.21H238.1v-5h2.58V10.38h5.9v4.79h3.86v5h-3.86v7.28a2.22,2.22,0,0,0,.47,1.61,2.23,2.23,0,0,0,1.57.46Z"/><path class="cls-12" d="M271.53,29.56V34.7h-2.66a7.56,7.56,0,0,1-5.25-1.7c-1.24-1.13-1.87-3-1.87-5.62V20.21h-2.58v-5h2.58V10.38h5.9v4.79h3.86v5h-3.87v7.28a2.21,2.21,0,0,0,.46,1.61,2.23,2.23,0,0,0,1.57.46Z"/><path class="cls-12" d="M288.93,16.13a8.68,8.68,0,0,1,3.54,3.49,10.41,10.41,0,0,1,1.33,5.32,10.55,10.55,0,0,1-1.3,5.31A8.68,8.68,0,0,1,289,33.74a11.46,11.46,0,0,1-10.24,0,8.85,8.85,0,0,1-3.61-3.49,10.67,10.67,0,0,1-1.29-5.31,10.71,10.71,0,0,1,1.29-5.32,8.88,8.88,0,0,1,3.57-3.49,11.46,11.46,0,0,1,10.24,0ZM281,21.35a5.08,5.08,0,0,0-1.15,3.59A5,5,0,0,0,281,28.5a3.77,3.77,0,0,0,2.85,1.23,3.71,3.71,0,0,0,2.82-1.23,5,5,0,0,0,1.14-3.56,5.12,5.12,0,0,0-1.14-3.59,3.68,3.68,0,0,0-2.82-1.24A3.74,3.74,0,0,0,281,21.35Z"/><path class="cls-12" d="M334.19,17.18a8.87,8.87,0,0,1,2,6.18V34.7h-5.86V24.06a4,4,0,0,0-1-2.89,3.5,3.5,0,0,0-2.67-1,3.63,3.63,0,0,0-2.77,1.1,4.41,4.41,0,0,0-1,3.1V34.7h-5.91V24.06a4,4,0,0,0-1-2.89,3.48,3.48,0,0,0-2.66-1,3.6,3.6,0,0,0-2.78,1.09,4.33,4.33,0,0,0-1,3.11V34.7h-5.9V15.17h5.9V18.5a5.85,5.85,0,0,1,2.33-2.59,6.94,6.94,0,0,1,3.67-.95,7.26,7.26,0,0,1,3.88,1A6.49,6.49,0,0,1,322,19a7.9,7.9,0,0,1,2.75-3,7.77,7.77,0,0,1,9.42,1.14Z"/><path class="cls-12" d="M358.22,26H344.89a4.57,4.57,0,0,0,1.1,3.17,3.59,3.59,0,0,0,2.55,1,3.49,3.49,0,0,0,2.18-.66,3.22,3.22,0,0,0,1.12-1.74h6.23a8.35,8.35,0,0,1-1.65,3.69A8.89,8.89,0,0,1,353.19,34a10.13,10.13,0,0,1-4.37.93,10.28,10.28,0,0,1-5-1.21,8.52,8.52,0,0,1-3.42-3.49,10.87,10.87,0,0,1-1.24-5.31,11,11,0,0,1,1.22-5.34,8.47,8.47,0,0,1,3.42-3.47,10.38,10.38,0,0,1,5-1.21,10.12,10.12,0,0,1,5,1.2,8.31,8.31,0,0,1,3.36,3.34,10.14,10.14,0,0,1,1.19,4.95A8.71,8.71,0,0,1,358.22,26Zm-6.81-5.41a3.67,3.67,0,0,0-2.59-1,3.83,3.83,0,0,0-2.69,1A4.14,4.14,0,0,0,345,23.5h7.51a3.65,3.65,0,0,0-1-2.89Z"/><path class="cls-12" d="M382.44,16.13A8.87,8.87,0,0,1,386,19.62a10.59,10.59,0,0,1,1.27,5.32A10.54,10.54,0,0,1,386,30.25a8.87,8.87,0,0,1-3.54,3.49,11.48,11.48,0,0,1-10.25,0,8.79,8.79,0,0,1-3.56-3.49,10.57,10.57,0,0,1-1.29-5.31,10.61,10.61,0,0,1,1.29-5.32,8.79,8.79,0,0,1,3.56-3.49,11.48,11.48,0,0,1,10.25,0Zm-8,5.22a5.08,5.08,0,0,0-1.15,3.59,5,5,0,0,0,1.15,3.56,3.88,3.88,0,0,0,5.67,0,5.08,5.08,0,0,0,1.13-3.56,5.16,5.16,0,0,0-1.13-3.59,3.86,3.86,0,0,0-5.67,0Z"/><path class="cls-12" d="M407.78,17.2a9.11,9.11,0,0,1,2,6.16V34.7h-5.9V24.06a4.39,4.39,0,0,0-1-3.06,3.47,3.47,0,0,0-2.71-1.1,3.69,3.69,0,0,0-2.84,1.15,4.72,4.72,0,0,0-1.05,3.29V34.7h-5.9V15.17h5.9v3.57A6.33,6.33,0,0,1,398.69,16a7.09,7.09,0,0,1,3.83-1A6.63,6.63,0,0,1,407.78,17.2Z"/><path class="cls-12" d="M453.58,10l-5.82,24.7h-7.3l-3.93-16.55L432.6,34.7h-7.3L419.53,10h6.41l3.12,17.92L433.33,10h6.45L444,27.92,447.25,10Z"/><path class="cls-12" d="M474.12,17.2a9.11,9.11,0,0,1,2,6.16V34.7h-5.9V24.06a4.34,4.34,0,0,0-1-3.06,3.47,3.47,0,0,0-2.71-1.1,3.65,3.65,0,0,0-2.83,1.15,4.67,4.67,0,0,0-1.05,3.29V34.7H456.7V8.8h5.91v9.94A6.27,6.27,0,0,1,465.07,16a7.09,7.09,0,0,1,3.83-1A6.63,6.63,0,0,1,474.12,17.2Z"/><path class="cls-12" d="M491,15.94a6.05,6.05,0,0,1,2.35,2.77V15.17h5.85V34.7h-5.85V31.17A6.09,6.09,0,0,1,491,33.93a6.73,6.73,0,0,1-3.78,1A7.72,7.72,0,0,1,483,33.72a8.27,8.27,0,0,1-2.95-3.49A12.42,12.42,0,0,1,479,24.92a12.26,12.26,0,0,1,1.09-5.34A8.22,8.22,0,0,1,483,16.11a7.72,7.72,0,0,1,4.25-1.21A6.83,6.83,0,0,1,491,15.94Zm-4.91,5.5a5,5,0,0,0-1.15,3.5,5,5,0,0,0,1.15,3.5,4.26,4.26,0,0,0,6.09,0A4.94,4.94,0,0,0,493.4,25a4.92,4.92,0,0,0-1.19-3.49,4,4,0,0,0-3-1.28,3.86,3.86,0,0,0-3.07,1.23Z"/><path class="cls-12" d="M514.14,29.56V34.7h-2.65a7.58,7.58,0,0,1-5.22-1.7c-1.24-1.13-1.87-3-1.88-5.62V20.21h-2.57v-5h2.57V10.38h5.9v4.79h3.85v5h-3.86v7.28a2.22,2.22,0,0,0,.47,1.61,2.19,2.19,0,0,0,1.56.46Z"/><path class="cls-12" d="M530.3,16.78a8.17,8.17,0,0,1,2.74,4.9h-5.51a3.11,3.11,0,0,0-1.08-1.87,3.27,3.27,0,0,0-2.12-.69,2.28,2.28,0,0,0-1.51.44,1.55,1.55,0,0,0-.53,1.25,1.46,1.46,0,0,0,1,1.36,15.25,15.25,0,0,0,3,.91,28.8,28.8,0,0,1,3.65,1.07,6,6,0,0,1,2.44,1.77,4.91,4.91,0,0,1,1,3.29,5.08,5.08,0,0,1-.89,3,5.9,5.9,0,0,1-2.58,2,10,10,0,0,1-4,.74,10.2,10.2,0,0,1-6.24-1.75,7.41,7.41,0,0,1-2.85-5h5.67a2.64,2.64,0,0,0,1.06,1.93,3.87,3.87,0,0,0,2.36.66,2.18,2.18,0,0,0,1.51-.47,1.61,1.61,0,0,0,.51-1.24,1.51,1.51,0,0,0-1-1.46,17.58,17.58,0,0,0-3.08-.92,25.09,25.09,0,0,1-3.51-1,5.93,5.93,0,0,1-2.38-1.7,4.84,4.84,0,0,1-1-3.2,5.28,5.28,0,0,1,2-4.26,8.51,8.51,0,0,1,5.55-1.63A8.71,8.71,0,0,1,530.3,16.78Z"/><path class="cls-12" d="M551.67,30.19h-9.13L541,34.7H534.8l8.92-24.57h6.82l8.92,24.57h-6.27Zm-1.52-4.56-3-9.09-3.07,9.09Z"/><path class="cls-12" d="M578,16.13a8.16,8.16,0,0,1,2.95,3.47A12.11,12.11,0,0,1,582,24.94a12,12,0,0,1-1.08,5.31A8.27,8.27,0,0,1,578,33.74,7.66,7.66,0,0,1,573.7,35a6.76,6.76,0,0,1-3.79-1,5.94,5.94,0,0,1-2.31-2.76V44h-5.9V15.17h5.9v3.54a5.92,5.92,0,0,1,2.31-2.77,6.76,6.76,0,0,1,3.79-1A7.7,7.7,0,0,1,578,16.13Zm-9.19,5.32a4.92,4.92,0,0,0-1.19,3.49,4.94,4.94,0,0,0,1.19,3.46,4.26,4.26,0,0,0,6.09,0A5,5,0,0,0,576,24.9a5,5,0,0,0-1.15-3.5,3.89,3.89,0,0,0-3.05-1.27,4,4,0,0,0-3,1.32Z"/><path class="cls-12" d="M601.29,16.13a8.16,8.16,0,0,1,3,3.47,12.26,12.26,0,0,1,1.09,5.34,12.13,12.13,0,0,1-1.09,5.31,8.27,8.27,0,0,1-3,3.49A7.64,7.64,0,0,1,597,35a6.73,6.73,0,0,1-3.78-1,5.91,5.91,0,0,1-2.32-2.76V44H585V15.17h5.9v3.54a5.88,5.88,0,0,1,2.32-2.77,6.73,6.73,0,0,1,3.78-1A7.7,7.7,0,0,1,601.29,16.13Zm-9.18,5.32a4.89,4.89,0,0,0-1.2,3.49,4.9,4.9,0,0,0,1.2,3.46,4.24,4.24,0,0,0,6.08,0,5,5,0,0,0,1.15-3.5,5,5,0,0,0-1.15-3.5,4.22,4.22,0,0,0-6.08.05Z"/><path class="cls-12" d="M613.49,28.71v6H607.4v-6Z"/><path class="cls-12" d="M276.13,71.08V95.83h-6V71.08Z"/><path class="cls-12" d="M298,78.33a9,9,0,0,1,2,6.16V95.83h-6V85.19a4.26,4.26,0,0,0-1-3.06A3.6,3.6,0,0,0,290.2,81a3.78,3.78,0,0,0-2.89,1.15,4.69,4.69,0,0,0-1.07,3.29V95.83h-6V76.3h6v3.57a6.38,6.38,0,0,1,2.51-2.76,7.3,7.3,0,0,1,3.9-1A6.77,6.77,0,0,1,298,78.33Z"/><path class="cls-12" d="M317,77.91a8.08,8.08,0,0,1,2.78,4.9h-5.6a3.09,3.09,0,0,0-1.1-1.87,3.36,3.36,0,0,0-2.16-.69,2.36,2.36,0,0,0-1.54.44,1.53,1.53,0,0,0-.52,1.25,1.45,1.45,0,0,0,1,1.36,15,15,0,0,0,3,.91,31.42,31.42,0,0,1,3.67,1.07A6.18,6.18,0,0,1,319,87a4.88,4.88,0,0,1,1,3.29,5,5,0,0,1-.91,3,6,6,0,0,1-2.63,2,10.26,10.26,0,0,1-4.06.74,10.53,10.53,0,0,1-6.33-1.75,7.39,7.39,0,0,1-2.91-5H309a2.63,2.63,0,0,0,1,2,4,4,0,0,0,2.39.66,2.26,2.26,0,0,0,1.54-.47,1.63,1.63,0,0,0,.53-1.24,1.5,1.5,0,0,0-1-1.46,18.21,18.21,0,0,0-3.14-.92,24.56,24.56,0,0,1-3.57-1,5.91,5.91,0,0,1-2.41-1.69,4.74,4.74,0,0,1-1-3.2,5.25,5.25,0,0,1,2-4.26A8.73,8.73,0,0,1,311,76.05,9,9,0,0,1,317,77.91Z"/><path class="cls-12" d="M334.4,90.69v5.14h-2.69a7.77,7.77,0,0,1-5.34-1.7c-1.27-1.13-1.9-3-1.91-5.62V81.34h-2.62v-5h2.62V71.5h6v4.8h3.92v5h-3.92v7.28a2.22,2.22,0,0,0,.47,1.61,2.27,2.27,0,0,0,1.59.46Z"/><path class="cls-12" d="M349,77.07a6,6,0,0,1,2.38,2.76V76.3h5.95V95.83h-5.95V92.29A6.06,6.06,0,0,1,349,95.06a7,7,0,0,1-3.85,1,7.93,7.93,0,0,1-4.32-1.21,8.32,8.32,0,0,1-3-3.49,13.41,13.41,0,0,1,0-10.65,8.41,8.41,0,0,1,3-3.47A7.93,7.93,0,0,1,345.15,76,7.06,7.06,0,0,1,349,77.07Zm-5,5.5a5.82,5.82,0,0,0,0,7,4.39,4.39,0,0,0,6.2,0,5.62,5.62,0,0,0,0-7,4.07,4.07,0,0,0-3.1-1.28A4,4,0,0,0,344,82.57Z"/><path class="cls-12" d="M372.76,77.07a6,6,0,0,1,2.38,2.76V76.3h5.95V95.72a11.27,11.27,0,0,1-1,4.92,8,8,0,0,1-3.22,3.48,10.25,10.25,0,0,1-5.39,1.3,11,11,0,0,1-7.05-2.08,8.5,8.5,0,0,1-3.17-5.65h5.92a3,3,0,0,0,1.28,1.85,4.58,4.58,0,0,0,2.6.67,4.24,4.24,0,0,0,3-1.07,4.54,4.54,0,0,0,1.13-3.42V92.29a6.06,6.06,0,0,1-2.38,2.77,7,7,0,0,1-3.85,1,7.93,7.93,0,0,1-4.32-1.21,8.32,8.32,0,0,1-3-3.49,13.41,13.41,0,0,1,0-10.65,8.41,8.41,0,0,1,3-3.47A7.93,7.93,0,0,1,369,76,7.06,7.06,0,0,1,372.76,77.07Zm-5,5.5a5.82,5.82,0,0,0,0,7,4,4,0,0,0,3.1,1.26,4.09,4.09,0,0,0,3.1-1.3,5.62,5.62,0,0,0,0-7,4.07,4.07,0,0,0-3.1-1.28,4,4,0,0,0-3.12,1.32Z"/><path class="cls-12" d="M394.1,77.14a7.36,7.36,0,0,1,3.83-1V82.5h-1.72a6,6,0,0,0-3.69,1,4.1,4.1,0,0,0-1.31,3.43v8.89h-6V76.3h6V80A8.59,8.59,0,0,1,394.1,77.14Z"/><path class="cls-12" d="M411.72,77.07a6.2,6.2,0,0,1,2.38,2.76V76.3h5.95V95.83H414.1V92.29a6.23,6.23,0,0,1-2.38,2.77,7.13,7.13,0,0,1-3.85,1,7.93,7.93,0,0,1-4.32-1.21,8.2,8.2,0,0,1-3-3.49,13.33,13.33,0,0,1,0-10.65,8.21,8.21,0,0,1,3-3.47A7.93,7.93,0,0,1,407.87,76,7.06,7.06,0,0,1,411.72,77.07Zm-5,5.5a5.79,5.79,0,0,0,0,7,4,4,0,0,0,3.09,1.26,4.09,4.09,0,0,0,3.1-1.3,5.59,5.59,0,0,0,0-7,4.07,4.07,0,0,0-3.1-1.28,4,4,0,0,0-3.11,1.32Z"/><path class="cls-12" d="M455.15,78.31a8.7,8.7,0,0,1,2.07,6.18V95.83h-6V85.19a4,4,0,0,0-1-2.89,3.59,3.59,0,0,0-2.71-1,3.72,3.72,0,0,0-2.82,1.1,4.38,4.38,0,0,0-1,3.1V95.83h-6V85.19a4,4,0,0,0-1-2.89,3.53,3.53,0,0,0-2.69-1,3.76,3.76,0,0,0-2.84,1.09,4.28,4.28,0,0,0-1,3.11V95.83h-6V76.3h6v3.32A5.84,5.84,0,0,1,432.53,77a7.16,7.16,0,0,1,3.72-1,7.47,7.47,0,0,1,4,1,6.57,6.57,0,0,1,2.59,3,7.84,7.84,0,0,1,2.78-2.91,8,8,0,0,1,9.57,1.14Z"/><path class="cls-12" d="M477.8,73.64a3.05,3.05,0,0,0-2.14.63,2.88,2.88,0,0,0-.73,2h3.53v5h-3.53V95.83h-6V81.34H466.6v-5h2.34v-.21a7.31,7.31,0,0,1,2.12-5.62,8.67,8.67,0,0,1,6.14-2h1.26v5.14Z"/><path class="cls-12" d="M495.42,77.26a8.83,8.83,0,0,1,3.6,3.49,11.36,11.36,0,0,1,0,10.63,8.83,8.83,0,0,1-3.6,3.49,11.82,11.82,0,0,1-10.41,0,8.9,8.9,0,0,1-3.63-3.49,11.42,11.42,0,0,1,0-10.63A8.88,8.88,0,0,1,485,77.26a11.82,11.82,0,0,1,10.41,0Zm-8.09,5.22a5,5,0,0,0-1.17,3.59,5,5,0,0,0,1.17,3.56,3.87,3.87,0,0,0,2.89,1.23,3.76,3.76,0,0,0,2.87-1.23,5,5,0,0,0,1.16-3.56,5.08,5.08,0,0,0-1.16-3.59,3.74,3.74,0,0,0-2.87-1.24,3.81,3.81,0,0,0-2.89,1.24Z"/><path class="cls-12" d="M512.32,77.14a7.37,7.37,0,0,1,3.84-1V82.5h-1.72a5.82,5.82,0,0,0-3.69,1,4.07,4.07,0,0,0-1.31,3.43v8.89h-6V76.3h6V80A8.56,8.56,0,0,1,512.32,77.14Z"/><path class="cls-12" d="M556.65,78.31a8.7,8.7,0,0,1,2.07,6.18V95.83h-6V85.19a4,4,0,0,0-1-2.89,3.59,3.59,0,0,0-2.71-1,3.72,3.72,0,0,0-2.82,1.1,4.38,4.38,0,0,0-1,3.1V95.83h-6V85.19a4,4,0,0,0-1-2.89,3.53,3.53,0,0,0-2.69-1,3.76,3.76,0,0,0-2.84,1.09,4.28,4.28,0,0,0-1,3.11V95.83h-6V76.3h6v3.32A5.78,5.78,0,0,1,534,77a7.2,7.2,0,0,1,3.73-1,7.47,7.47,0,0,1,4,1,6.57,6.57,0,0,1,2.59,3,7.84,7.84,0,0,1,2.78-2.91,8,8,0,0,1,9.57,1.14Z"/><path class="cls-12" d="M581.08,87.15H567.54a4.49,4.49,0,0,0,1.12,3.17,3.58,3.58,0,0,0,2.59,1,3.53,3.53,0,0,0,2.2-.66,3.11,3.11,0,0,0,1.16-1.72h6.33a8.29,8.29,0,0,1-1.68,3.69A8.85,8.85,0,0,1,576,95.15a10.44,10.44,0,0,1-4.44.93,10.65,10.65,0,0,1-5.1-1.21A8.61,8.61,0,0,1,563,91.38a10.78,10.78,0,0,1-1.26-5.31A11,11,0,0,1,563,80.73a8.58,8.58,0,0,1,3.49-3.47,11.42,11.42,0,0,1,10.22,0,8.37,8.37,0,0,1,3.41,3.34,10,10,0,0,1,1.21,5A8.17,8.17,0,0,1,581.08,87.15Zm-6.91-5.41a3.79,3.79,0,0,0-2.64-1,3.93,3.93,0,0,0-2.73,1,4.14,4.14,0,0,0-1.23,2.87h7.63a3.61,3.61,0,0,0-1-2.87Z"/><path class="cls-12" d="M589.52,89.84v6h-6.2v-6Z"/><path class="cls-12" d="M408,135.15v5.07h8.17v4.38H408V150h9.19v4.7h-15V130.49h15v4.66Z"/><path class="cls-12" d="M450.81,137.56a8.53,8.53,0,0,1,2,6.06v11.09H447V144.29a3.92,3.92,0,0,0-1-2.83,3.53,3.53,0,0,0-2.65-1,3.59,3.59,0,0,0-2.75,1.08,4.22,4.22,0,0,0-1,3v10.13h-5.87V144.29a4,4,0,0,0-1-2.83,3.48,3.48,0,0,0-2.63-1,3.68,3.68,0,0,0-2.78,1.07,4.23,4.23,0,0,0-1,3v10.13h-5.86V135.59h5.86v3.25a5.79,5.79,0,0,1,2.32-2.53,7,7,0,0,1,3.64-.92,7.25,7.25,0,0,1,3.91,1,6.39,6.39,0,0,1,2.53,2.93,7.57,7.57,0,0,1,2.72-2.84,7.81,7.81,0,0,1,9.35,1.11Z"/><path class="cls-12" d="M467.75,136.35a6,6,0,0,1,2.33,2.7v-3.46h5.81v19.1h-5.81v-3.46a5.94,5.94,0,0,1-2.33,2.7,6.73,6.73,0,0,1-3.76,1,7.75,7.75,0,0,1-4.22-1.17,8.17,8.17,0,0,1-2.94-3.41,13.08,13.08,0,0,1,0-10.41,8.14,8.14,0,0,1,2.94-3.4,7.76,7.76,0,0,1,4.22-1.18A6.76,6.76,0,0,1,467.75,136.35Zm-4.89,5.37a5.69,5.69,0,0,0,0,6.85,4.32,4.32,0,0,0,6.06,0,5.49,5.49,0,0,0,0-6.85,4,4,0,0,0-3-1.25,4,4,0,0,0-3.05,1.29Z"/><path class="cls-12" d="M480.34,128a4.13,4.13,0,0,1,5.07,0,2.94,2.94,0,0,1,.24,4.14l-.24.24a4.13,4.13,0,0,1-5.07,0,2.94,2.94,0,0,1-.24-4.14Zm5.44,7.58v19.09h-5.87V135.59Z"/><path class="cls-12" d="M495.67,129.37v25.32h-5.86V129.37Z"/><path class="cls-12" d="M522.68,136.53a8.06,8.06,0,0,1,2.93,3.4,13.08,13.08,0,0,1,0,10.41,8.07,8.07,0,0,1-2.93,3.41,7.77,7.77,0,0,1-4.22,1.17,6.76,6.76,0,0,1-3.77-1,5.7,5.7,0,0,1-2.29-2.7V163.8h-5.87V135.59h5.87v3.46a5.7,5.7,0,0,1,2.29-2.7,6.85,6.85,0,0,1,3.77-1A7.76,7.76,0,0,1,522.68,136.53Zm-9.13,5.2a5.46,5.46,0,0,0,0,6.85,4.32,4.32,0,0,0,6.05,0,5.72,5.72,0,0,0,0-6.85,3.94,3.94,0,0,0-3-1.24A4,4,0,0,0,513.55,141.73Z"/><path class="cls-12" d="M535.59,129.37v25.32h-5.86V129.37Z"/><path class="cls-12" d="M557.6,146.2H544.35a4.46,4.46,0,0,0,1.1,3.1,3.55,3.55,0,0,0,2.53,1,3.43,3.43,0,0,0,2.16-.66,3,3,0,0,0,1.12-1.67h6.17a8.09,8.09,0,0,1-1.64,3.61,8.77,8.77,0,0,1-3.22,2.5,10.16,10.16,0,0,1-4.35.9,10.34,10.34,0,0,1-5-1.17,8.54,8.54,0,0,1-3.41-3.41,11.78,11.78,0,0,1,0-10.42,8.43,8.43,0,0,1,3.41-3.39,11.25,11.25,0,0,1,10,0,8.28,8.28,0,0,1,3.33,3.28,9.61,9.61,0,0,1,1.18,4.84A8.59,8.59,0,0,1,557.6,146.2Zm-6.77-5.29a3.7,3.7,0,0,0-2.58-1,3.87,3.87,0,0,0-2.67,1,4,4,0,0,0-1.19,2.81h7.46A3.54,3.54,0,0,0,550.83,140.91Z"/><path class="cls-12" d="M571.83,136.35a6,6,0,0,1,2.33,2.7v-3.46H580v19.1h-5.81v-3.46a6.06,6.06,0,0,1-2.33,2.7,6.92,6.92,0,0,1-3.76,1,7.82,7.82,0,0,1-4.24-1.17,8.14,8.14,0,0,1-2.93-3.41,13.17,13.17,0,0,1,0-10.41,8.19,8.19,0,0,1,2.93-3.4,7.83,7.83,0,0,1,4.24-1.18A6.92,6.92,0,0,1,571.83,136.35Zm-4.89,5.37a5.72,5.72,0,0,0,0,6.85,4.33,4.33,0,0,0,6.06,0,5.46,5.46,0,0,0,0-6.85,4,4,0,0,0-3-1.25,4,4,0,0,0-3.06,1.25Z"/><path class="cls-12" d="M596.75,137.17a7.9,7.9,0,0,1,2.72,4.79H594a3,3,0,0,0-1.09-1.83,3.24,3.24,0,0,0-2.1-.67,2.24,2.24,0,0,0-1.5.43,1.48,1.48,0,0,0-.51,1.22,1.43,1.43,0,0,0,1,1.33,15.5,15.5,0,0,0,2.93.89,30,30,0,0,1,3.59,1,6,6,0,0,1,2.43,1.72,4.83,4.83,0,0,1,1,3.22,4.94,4.94,0,0,1-.89,2.93,5.92,5.92,0,0,1-2.57,2,11.82,11.82,0,0,1-10.16-1,7.17,7.17,0,0,1-2.84-4.89h5.65a2.54,2.54,0,0,0,1,1.88,3.93,3.93,0,0,0,2.35.65,2.13,2.13,0,0,0,1.5-.46,1.51,1.51,0,0,0,.52-1.21,1.44,1.44,0,0,0-1-1.42,16.18,16.18,0,0,0-3.05-.9,24.38,24.38,0,0,1-3.49-1,5.69,5.69,0,0,1-2.36-1.65,4.6,4.6,0,0,1-1-3.13,5.17,5.17,0,0,1,2-4.17,8.51,8.51,0,0,1,5.5-1.59A8.76,8.76,0,0,1,596.75,137.17Z"/><path class="cls-12" d="M621,146.2H607.71a4.44,4.44,0,0,0,1.1,3.1,3.55,3.55,0,0,0,2.53,1,3.41,3.41,0,0,0,2.16-.66,3.08,3.08,0,0,0,1.13-1.67h6.19a8.09,8.09,0,0,1-1.64,3.61,8.77,8.77,0,0,1-3.22,2.5,10.16,10.16,0,0,1-4.35.9,10.34,10.34,0,0,1-5-1.17,8.52,8.52,0,0,1-3.4-3.41,11.71,11.71,0,0,1,0-10.42,8.41,8.41,0,0,1,3.4-3.39,11.25,11.25,0,0,1,10,0,8.28,8.28,0,0,1,3.33,3.28,9.73,9.73,0,0,1,1.19,4.84A9.58,9.58,0,0,1,621,146.2Zm-6.77-5.29a3.7,3.7,0,0,0-2.58-1,3.82,3.82,0,0,0-2.66,1,4,4,0,0,0-1.2,2.81h7.46a3.54,3.54,0,0,0-1-2.81Z"/><path class="cls-12" d="M629.2,148.83v5.87h-6.05v-5.87Z"/></svg>