
<svg xmlns="http://www.w3.org/2000/svg" version="1.1" xmlns:xlink="http://www.w3.org/1999/xlink" preserveAspectRatio="none" x="0px" y="0px" width="97px" height="33px" viewBox="0 0 97 33">
<defs>
<g id="sitchAllDark_0_Layer0_0_FILL">
<path fill="#333333" stroke="none" d="
M 11.6 22.7
L 16.3 17.15 7.45 9.75 2.75 15.3 11.6 22.7
M 8.05 24.5
Q 7.85 24.1 7.85 23.55
L 1.25 23.55
Q 1.25 25.2 1.75 26.6 1.85 26.8 1.9 26.95 2.45 28.35 3.55 29.5 3.7 29.7 3.85 29.85
L 3.9 29.9
Q 4 30 4.05 30.05 4.65 30.6 5.25 31 6.8 32.05 8.7 32.35
L 8.75 32.35
Q 9.4 32.45 10.15 32.45 13.85 32.45 16.45 29.85 16.9 29.4 17.3 28.9 17.35 28.8 17.45 28.7
L 17.5 28.6
Q 17.95 28 18.25 27.35 19.05 25.6 19.05 23.55 19.05 22.4 18.8 21.35 18.75 21.2 18.75 21.05 18.25 19.4 17.1 18
L 12.45 23.55
Q 12.45 24.1 12.25 24.5 12.2 24.65 12.1 24.8 11.95 25 11.75 25.2 11.1 25.85 10.15 25.85 9.35 25.85 8.75 25.35 8.7 25.35 8.7 25.3 8.6 25.25 8.55 25.2 8.35 25 8.2 24.8 8.1 24.65 8.05 24.5
M 10.35 7.15
Q 10.45 7.2 10.5 7.3 10.7 7.5 10.85 7.7 11.2 8.25 11.2 8.9
L 17.8 8.9
Q 17.8 5.2 15.2 2.6 15.15 2.6 15.15 2.55 14.5 1.95 13.8 1.45 12.25 0.4 10.35 0.1 9.65 0 8.9 0 5.2 0 2.6 2.6 2.6 2.65 2.55 2.65 2.15 3.1 1.75 3.55 0 5.85 0 8.9 0 9.05 0 9.2 0 9.5 0 9.75 0.05 10 0.05 10.2 0.15 10.85 0.3 11.45 0.4 11.75 0.5 12.05 0.55 12.05 0.55 12.1 0.95 13.1 1.55 14 1.75 14.25 1.95 14.45
L 6.6 8.9
Q 6.6 8.25 6.95 7.7 7.1 7.5 7.25 7.3 7.65 6.9 8.1 6.75 8.45 6.6 8.9 6.6 9.75 6.6 10.35 7.15
M 30.4 12.8
L 23.1 12.8 23.1 32.45 30.4 32.45 30.4 12.8
M 30.4 0
L 23.1 0 23.1 11.55 30.4 11.55 30.4 0
M 43.9 32.45
L 43.9 8.55 36.6 8.55 36.6 32.45 43.9 32.45
M 57.35 22
L 57.35 10.45 50.1 10.45 50.1 22 57.35 22
M 46 7.3
L 46 0 34.45 0 34.45 7.3 46 7.3
M 67.9 23.55
L 67.9 23.25 60.65 23.25 60.65 23.65
Q 60.6 24.1 60.35 24.5 60.25 24.6 60.15 24.7 59.7 25.2 59 25.2 58.35 25.2 57.85 24.7 57.45 24.3 57.4 23.75 57.4 23.7 57.4 23.6
L 57.4 23.25 50.1 23.25 50.1 23.6
Q 50.1 24.45 50.2 25.25 50.25 25.35 50.25 25.4 50.25 25.45 50.3 25.5 50.45 26.4 50.85 27.25 51.25 28.1 51.85 28.9 52.1 29.2 52.35 29.5 52.5 29.65 52.65 29.8 52.65 29.85 52.7 29.85 55.3 32.45 59 32.45 59.75 32.45 60.45 32.35 62.35 32.05 63.9 31 64.6 30.55 65.2 29.9 65.25 29.9 65.3 29.85 65.45 29.7 65.65 29.5 66.6 28.45 67.15 27.25 67.5 26.35 67.7 25.4 67.85 24.6 67.9 23.7 67.9 23.65 67.9 23.55
M 67.9 9.2
L 67.9 8.9
Q 67.9 8.85 67.9 8.75 67.85 7.85 67.7 7.05 67.5 6.1 67.15 5.25 66.6 4 65.65 2.95 65.45 2.8 65.3 2.6 65.25 2.6 65.2 2.55 64.6 1.9 63.9 1.45 62.35 0.4 60.45 0.1 59.75 0 59 0 55.3 0 52.7 2.6
L 52.65 2.65
Q 52.5 2.8 52.35 2.95 52.1 3.25 51.85 3.55 51.25 4.35 50.85 5.25 50.45 6.05 50.3 6.95 50.25 7 50.25 7.05 50.25 7.15 50.2 7.2 50.1 8 50.1 8.9
L 50.1 9.2 57.4 9.2 57.4 8.85
Q 57.4 8.8 57.4 8.7 57.45 8.15 57.85 7.75 58.35 7.3 59 7.3 59.7 7.3 60.15 7.75 60.25 7.85 60.35 7.95 60.6 8.35 60.65 8.85
L 60.65 9.2 67.9 9.2
M 79.25 0
L 71.95 0 71.95 32.45 79.25 32.45 79.25 0
M 89 32.45
L 96.25 32.45 96.25 0 89 0 89 32.45
M 87.75 22
L 87.75 10.45 80.45 10.45 80.45 22 87.75 22 Z"/>
</g>
</defs>

<g id="Layer_2"/>

<g id="sitchCardsQRCode_svg">
<g transform="matrix( 1, 0, 0, 1, 0.4,0.3) ">
<g id="Layer_1">
<g transform="matrix( 1, 0, 0, 1, 0,0) ">
<use xlink:href="#sitchAllDark_0_Layer0_0_FILL"/>
</g>
</g>
</g>
</g>
</svg>
